<svg width="16" height="19" viewBox="0 0 16 19" fill="none" xmlns="http://www.w3.org/2000/svg">
<path d="M15.0448 10.6062C15.0807 11.0369 14.9297 11.4622 14.6311 11.7683L10.7148 15.7813C10.1501 16.3552 9.38515 16.6756 8.58974 16.6715H3.75429L2.52979 17.9222C2.3635 18.0926 2.09346 18.0926 1.92717 17.9222C1.76089 17.7518 1.76089 17.475 1.92717 17.3046L3.27206 15.9265V15.9258C3.35188 15.8447 3.4603 15.7984 3.57336 15.7991H8.5898C9.16514 15.8011 9.71654 15.5673 10.1223 15.1495L14.0386 11.1364C14.2527 10.9027 14.2474 10.536 14.0259 10.309C13.8038 10.082 13.4466 10.0759 13.2178 10.2954L10.1277 13.4954L10.1177 13.5042H10.117C9.85097 13.7748 9.49246 13.9268 9.11799 13.9282H6.12951C5.89406 13.9282 5.70383 13.7332 5.70383 13.492C5.70383 13.2514 5.89406 13.0558 6.12951 13.0558H9.11935C9.38872 13.0544 9.62219 12.8629 9.68139 12.5937C9.71931 12.4192 9.6774 12.2365 9.56832 12.0968C9.45924 11.9578 9.29362 11.8767 9.11936 11.8767H3.96193C3.48436 11.8753 3.02675 12.0689 2.69019 12.4158L1.93725 13.1853C1.8601 13.2773 1.74901 13.3325 1.62996 13.3366C1.51157 13.3414 1.3965 13.295 1.31269 13.2091C1.22955 13.1226 1.18432 13.0047 1.18897 12.8833C1.19363 12.762 1.24751 12.6482 1.33796 12.5691L2.0909 11.7996C2.58643 11.2891 3.26087 11.0022 3.96391 11.0042H9.1193C9.69663 11.0022 10.2174 11.36 10.4356 11.908L12.6052 9.68475C12.9997 9.28058 13.5883 9.14768 14.1124 9.34601C14.6365 9.54366 15.0004 10.0358 15.045 10.6062L15.0448 10.6062ZM11.6393 4.84827C11.5342 4.57428 11.324 4.35686 11.0566 4.2478L9.96182 3.80478L9.75097 2.61816C9.69975 2.32849 9.53281 2.07359 9.2907 1.91479C9.04792 1.75598 8.7526 1.70759 8.47391 1.7812L7.33122 2.07564L6.47985 1.24345C6.27232 1.04033 5.99164 0.934703 5.70497 0.951733C5.4183 0.968772 5.15092 1.10781 4.96801 1.33409L4.21907 2.26375L3.05242 2.1029V2.10358C2.76774 2.06405 2.47908 2.14856 2.25692 2.33531C2.03477 2.52206 1.89841 2.79537 1.88113 3.0898L1.80796 4.29345L0.769018 4.86596C0.51892 5.00568 0.336011 5.2456 0.263509 5.52845C0.191674 5.81062 0.236238 6.11188 0.387889 6.35928L1.01976 7.37822L0.508937 8.46533H0.508271C0.383891 8.73113 0.372584 9.03784 0.477675 9.31185C0.582766 9.58652 0.794282 9.80394 1.06166 9.91163L2.37597 10.4439H2.37664C2.59479 10.5325 2.84224 10.4228 2.9287 10.1986C3.01517 9.97503 2.90808 9.72148 2.68993 9.63288L1.37562 9.10057H1.37495C1.32773 9.08148 1.28981 9.04263 1.27119 8.99424C1.25256 8.94585 1.25456 8.89132 1.27651 8.84361L1.88776 7.5384V7.53908C1.95161 7.40345 1.9423 7.24396 1.86382 7.11651L1.10623 5.89513C1.07896 5.85083 1.07032 5.79699 1.08362 5.74655C1.09626 5.69611 1.12951 5.65317 1.17408 5.62796L2.41854 4.94025L2.41921 4.94094C2.54625 4.87073 2.63006 4.7392 2.64203 4.59197L2.73049 3.14705C2.73315 3.09457 2.75709 3.04618 2.797 3.01278C2.83624 2.9787 2.88746 2.96371 2.93801 2.97053L4.33945 3.1641V3.16478C4.48512 3.18522 4.63077 3.12729 4.72456 3.01074L5.62516 1.89434C5.65775 1.85412 5.70564 1.82959 5.75619 1.82618C5.8074 1.82345 5.85729 1.84254 5.89453 1.87866L6.91618 2.87853C7.02193 2.98281 7.17358 3.02302 7.31593 2.98486L8.67812 2.62363C8.72734 2.61068 8.77989 2.61954 8.82312 2.64748C8.86569 2.67543 8.89562 2.72041 8.90493 2.77221L9.17032 4.19396C9.19626 4.34254 9.29537 4.46658 9.43239 4.52179L10.7467 5.0541H10.7474C10.7933 5.07523 10.8298 5.11476 10.8465 5.16315C10.8638 5.21222 10.8604 5.26607 10.8372 5.31242L10.2259 6.61763C10.1627 6.75326 10.1714 6.91275 10.2499 7.03952L11.0074 8.2609C11.0347 8.3052 11.0434 8.35904 11.03 8.41016C11.0174 8.4606 10.9842 8.50354 10.9396 8.52807L9.69513 9.21578H9.69446C9.59203 9.26826 9.51421 9.36163 9.47963 9.4741C9.44438 9.58656 9.45568 9.70856 9.51022 9.81284C9.56476 9.91643 9.65855 9.99346 9.76896 10.0255C9.88003 10.0575 9.99843 10.0425 10.0982 9.98324L11.3427 9.29553H11.3433C11.5954 9.15581 11.7797 8.91522 11.8515 8.63032C11.924 8.34611 11.8781 8.04349 11.7245 7.79539L11.0926 6.77645L11.6034 5.68934C11.7278 5.42422 11.7398 5.11751 11.636 4.84282L11.6393 4.84827ZM6.05413 9.21031C5.74219 9.21099 5.46083 9.01878 5.34111 8.72367C5.24932 8.50148 4.9999 8.39719 4.78307 8.49058C4.56625 8.58396 4.46447 8.84022 4.5556 9.06172C4.80836 9.68128 5.39965 10.0841 6.05415 10.0827C6.98068 10.0827 7.67841 9.41069 7.67841 8.51239C7.67841 8.06936 7.48086 7.27875 6.16457 6.96454H6.15127C5.2826 6.76211 5.2826 6.38725 5.2826 6.26661C5.2826 5.79361 5.68302 5.56868 6.05549 5.56868H6.05616C6.36743 5.568 6.6488 5.75953 6.76918 6.05395C6.81042 6.16437 6.89356 6.25229 6.99932 6.29863C7.10574 6.34497 7.2248 6.34566 7.33122 6.29999C7.43764 6.25433 7.52145 6.16709 7.56335 6.05736C7.60526 5.94694 7.60193 5.82427 7.55471 5.71726C7.36116 5.24426 6.96474 4.89051 6.48184 4.75761V4.45022C6.48184 4.20963 6.29095 4.01402 6.05616 4.01402C5.8207 4.01402 5.63047 4.20963 5.63047 4.45022V4.76307C4.93409 4.91301 4.43656 5.54347 4.43856 6.27206C4.43856 6.71509 4.63611 7.5057 5.9524 7.8199H5.9657C6.83437 8.02438 6.83437 8.3972 6.83437 8.51783C6.82373 8.99766 6.42397 9.21236 6.05083 9.21236L6.05413 9.21031Z" fill="white" />
</svg>
