<svg width="18" height="15" viewBox="0 0 18 15" fill="none" xmlns="http://www.w3.org/2000/svg">
<path d="M16.0515 0.977295H15.7275C15.1681 0.977295 14.6412 1.19532 14.2467 1.59125L12.9106 2.92741L12.4594 2.47622L11.9658 2.96981L13.3618 4.36577L13.8554 3.87218L13.4042 3.421L14.7403 2.08484C15.0038 1.82063 15.3551 1.67529 15.7283 1.67529H16.0523C16.4376 1.67529 16.751 1.9887 16.751 2.37403V3.07278C16.751 3.45811 16.4376 3.77152 16.0523 3.77152V4.47027C16.8222 4.47027 17.4482 3.84344 17.4482 3.07431V2.37329C17.4482 1.60414 16.8214 0.977334 16.0515 0.977334L16.0515 0.977295Z" fill="white"/>
<path d="M14.4088 3.3189L15.0046 3.91468V6.68311C15.0046 6.96321 14.8955 7.22666 14.698 7.42349L8.26923 13.8514C8.13751 13.9839 7.90737 13.9839 7.77564 13.8514L2.48025 8.55528C2.34474 8.41977 2.34474 8.1972 2.48025 8.06169L8.90821 1.63373C9.10276 1.43918 9.37302 1.32714 9.64858 1.32714H12.417L13.0128 1.92292L13.5064 1.42933L12.7062 0.62915H9.6494C9.18383 0.62915 8.74474 0.810838 8.41543 1.14014L1.9867 7.5681C1.57865 7.9769 1.57865 8.64082 1.9867 9.04885L7.28209 14.345C7.47967 14.5426 7.74312 14.6516 8.02246 14.6516C8.30181 14.6516 8.56526 14.5426 8.76284 14.345L15.1908 7.91706C15.5201 7.58775 15.7018 7.14944 15.7018 6.68234L15.701 3.62611L14.9009 2.82593L14.4088 3.3189Z" fill="white"/>
<path d="M2.38167 6.72184L1.46414 5.3077C1.3733 5.13813 1.43764 4.92615 1.60343 4.83758L6.43855 2.33485L6.1168 1.71484L1.27859 4.2199C1.03105 4.35087 0.850113 4.57192 0.769861 4.83991C0.688101 5.10714 0.716112 5.39026 0.862218 5.6628L1.79488 7.10192L2.38167 6.72184Z" fill="white"/>
<path d="M1.39084 1.67616C1.39084 1.48312 1.54755 1.32716 1.73984 1.32716H7.67419V0.628418H1.73984C1.16222 0.628418 0.692871 1.09854 0.692871 1.67538V3.77017L1.39086 3.77092L1.39084 1.67616Z" fill="white"/>
</svg>
