<svg width="17" height="14" viewBox="0 0 17 14" fill="none" xmlns="http://www.w3.org/2000/svg">
<path d="M5.05408 0.22998C2.33655 0.22998 0.52002 2.38901 0.52002 4.79192C0.52002 7.04622 1.8434 8.9947 3.46154 10.5328C5.07967 12.0709 7.01081 13.2106 8.33566 13.8719C8.43909 13.9227 8.56095 13.9227 8.66438 13.8719C9.98918 13.2105 11.9204 12.0707 13.5385 10.5328C15.1566 8.99545 16.48 7.04693 16.48 4.79192C16.48 2.38901 14.6635 0.22998 11.946 0.22998C10.3435 0.22998 9.27938 1.02023 8.50006 2.0888C7.72077 1.02028 6.6567 0.22998 5.05418 0.22998H5.05408ZM5.05408 0.931818C6.60771 0.931818 7.45931 1.68163 8.18821 2.86187C8.25339 2.96811 8.3717 3.03322 8.49994 3.03322C8.62818 3.03322 8.74648 2.96811 8.81166 2.86187C9.54065 1.68163 10.3922 0.931818 11.9458 0.931818C14.2723 0.931818 15.7544 2.72273 15.7544 4.79192C15.7544 6.77882 14.5685 8.5643 13.0283 10.0283C11.5441 11.4389 9.77089 12.5114 8.4999 13.1592C7.22895 12.5115 5.45573 11.4389 3.97146 10.0283C2.43129 8.56503 1.2454 6.77882 1.2454 4.79192C1.2454 2.72273 2.72747 0.931818 5.05401 0.931818H5.05408Z" fill="white"/>
</svg>
