<svg width="15" height="19" viewBox="0 0 15 19" fill="none" xmlns="http://www.w3.org/2000/svg">
<path d="M6.50382 8.46875H4.35912C4.13797 8.46875 3.95925 8.28974 3.95925 8.06823C3.95925 7.97002 3.99402 7.88086 4.05244 7.81121L8.82571 1.11805C8.95367 0.938344 9.20263 0.895851 9.38205 1.02402C9.42169 1.05258 9.45437 1.08671 9.4801 1.12432L14.266 7.83566C14.394 8.01537 14.3522 8.26544 14.1721 8.39291C14.1019 8.44306 14.0212 8.46744 13.9406 8.46744V8.46883H11.9823C12.0782 10.3112 11.7117 17.1458 1.09338 18.0486C0.87362 18.0667 0.6803 17.9023 0.661518 17.6822C0.647609 17.5122 0.741491 17.3583 0.886135 17.2887C1.30756 17.0386 6.50308 13.8908 6.50308 10.6957V8.4696L6.50382 8.46875ZM5.13523 7.66771H6.90368C7.12483 7.66771 7.30355 7.84673 7.30355 8.06823V10.6956C7.30355 13.2888 4.47736 15.7484 2.69086 17.0446C11.9935 15.5149 11.2175 8.62458 11.1527 8.15026C11.1471 8.12379 11.1443 8.09593 11.1443 8.06806C11.1443 7.84656 11.3231 7.66755 11.5442 7.66755H13.1632L9.14845 2.03734L5.13376 7.66755L5.13523 7.66771Z" fill="white"/>
</svg>
