<svg width="15" height="17" viewBox="0 0 15 17" fill="none" xmlns="http://www.w3.org/2000/svg">
<path d="M0.954507 15.8288C1.18184 16.0897 1.51115 16.2398 1.85691 16.2398H13.1424C13.4888 16.2398 13.8181 16.0898 14.046 15.8288C14.2734 15.5673 14.3766 15.2209 14.3285 14.8777L13.0632 5.75161C12.979 5.16078 12.4743 4.72065 11.8771 4.71875H3.12277C2.5256 4.72065 2.02088 5.16078 1.93666 5.75161L0.671386 14.8777H0.670753C0.623257 15.2209 0.726481 15.5673 0.954458 15.8288H0.954507ZM1.3408 14.9708L2.60607 5.8447C2.64217 5.58697 2.86254 5.39509 3.12282 5.39445H11.8771C12.1374 5.39509 12.3578 5.58697 12.3945 5.8447L13.6598 14.9708C13.6807 15.1202 13.6357 15.2716 13.5363 15.3849C13.4369 15.4989 13.2938 15.5641 13.1424 15.5641H1.85696C1.70624 15.5641 1.56249 15.4989 1.4637 15.3849C1.36427 15.2709 1.31931 15.1202 1.34021 14.9708H1.3408Z" fill="white"/>
<path d="M9.8551 3.95516C9.94439 3.95516 10.0305 3.91969 10.0938 3.85637C10.1572 3.79304 10.1926 3.70691 10.1926 3.61762V3.4536C10.1926 2.49167 9.67969 1.60255 8.84631 1.12123C8.01293 0.640581 6.98634 0.640581 6.15371 1.12123C5.32033 1.60252 4.80737 2.49162 4.80737 3.4536V3.61762C4.80737 3.80379 4.95809 3.95514 5.1449 3.95514C5.33171 3.95514 5.48243 3.80379 5.48243 3.61762V3.4536C5.48243 2.33905 6.3861 1.43606 7.49997 1.43606C8.61385 1.43606 9.51687 2.3391 9.51687 3.4536V3.61762C9.51687 3.70691 9.55297 3.79303 9.61629 3.85637C9.67962 3.91969 9.76511 3.95516 9.85504 3.95516H9.8551Z" fill="white"/>
</svg>
