<svg xmlns="http://www.w3.org/2000/svg" width="20" height="20"><path d="M12.565 16.573a.492.492 0 01-.165-.955l6.942-2.476a.492.492 0 11.331.927l-6.942 2.476a.5.5 0 01-.166.028zM9.026 14.942a.492.492 0 01-.469-.345L4.366 1.265a.468.468 0 00-.383-.281H.492a.492.492 0 010-.984h3.491a1.434 1.434 0 011.321.97l4.191 13.332a.492.492 0 01-.321.617.5.5 0 01-.148.023z"></path><path d="M10 19.999a3.115 3.115 0 113.115-3.115A3.118 3.118 0 0110 19.999zm0-5.246a2.131 2.131 0 102.131 2.131A2.134 2.134 0 0010 14.754z"></path><g><path d="M12.144 13.443a.492.492 0 01-.467-.338l-1.95-5.918a.491.491 0 01.319-.623l6.187-1.951a.492.492 0 01.613.309l2.026 5.9a.492.492 0 01-.318.629l-6.263 1.967a.489.489 0 01-.147.025zm-1.327-6.091l1.643 4.984 5.318-1.671-1.706-4.971z"></path></g></svg>