<svg xmlns="http://www.w3.org/2000/svg" width="20" height="20"><path d="M4.426 10.853a.491.491 0 01-.348-.144L.144 6.775a.493.493 0 010-.7L4.078 2.14a.495.495 0 01.7.7L1.191 6.426l3.587 3.587a.492.492 0 01-.348.84z"></path><path d="M14.918 6.919H.492a.492.492 0 010-.984h14.426a.492.492 0 010 .984zM14.918 16.099H.492a.492.492 0 010-.984h14.426a.492.492 0 010 .984z"></path><path d="M14.918 16.099a.492.492 0 010-.984 4.1 4.1 0 000-8.2.492.492 0 010-.984 5.082 5.082 0 010 10.164z"></path><path fill="none" d="M0 0h20v20H0z"></path></svg>