<svg xmlns="http://www.w3.org/2000/svg" width="24" height="20"><path d="M3.192 7.588h3.933a.491.491 0 100-.983H3.192a.491.491 0 000 .983zM4.988 11.683a.491.491 0 00-.491-.491H1.875a.491.491 0 000 .983h2.622a.491.491 0 00.491-.492zM6.304 9.39a.491.491 0 00-.491-.491H.57a.491.491 0 100 .983h5.243a.49.49 0 00.491-.492z"></path><path d="M23.917 10.1l-1.914-5.141a.491.491 0 00-.461-.32h-5.079v-.505a1.132 1.132 0 00-1.128-1.133h-10.2a1.132 1.132 0 00-1.129 1.133v1a.491.491 0 10.982 0v-1a.151.151 0 01.146-.15h10.2a.15.15 0 01.146.15v10.513a.151.151 0 01-.146.151h-3.836a2.458 2.458 0 00-4.817 0H5.139a.151.151 0 01-.146-.151v-1a.491.491 0 10-.982 0v1a1.133 1.133 0 001.129 1.134h1.542a2.459 2.459 0 004.817 0h3.836a1.118 1.118 0 00.637-.2 1.175 1.175 0 00.656.2h.54a2.459 2.459 0 004.817 0h.867a1.126 1.126 0 001.147-1.1v-4.267a.1.1 0 010-.039.485.485 0 00-.082-.275zM9.09 16.763a1.475 1.475 0 111.475-1.475 1.476 1.476 0 01-1.475 1.475zm13.7-6.882h-2.391v-4.26h.806zm-3.21 6.882a1.475 1.475 0 111.476-1.475 1.476 1.476 0 01-1.48 1.475zm3.276-1.966h-.867a2.458 2.458 0 00-4.817 0h-.54c-.094 0-.165-.063-.165-.118V5.622h2.949v4.752a.492.492 0 00.492.491h3.113v3.814c-.003.055-.073.121-.168.121z"></path><path fill="none" d="M0 0h24v20H0z"></path></svg>