<svg xmlns="http://www.w3.org/2000/svg" width="20" height="20"><path d="M19.18 20H8.033a.821.821 0 01-.82-.82v-6.139a.492.492 0 11.984 0v5.975h10.816V.983H8.193v6.156a.492.492 0 11-.984 0V.819a.821.821 0 01.82-.82h11.148a.821.821 0 01.82.82V19.18a.821.821 0 01-.817.82z"></path><path d="M14.262 10.492H.492a.492.492 0 110-.984h13.77a.492.492 0 110 .984z"></path><path d="M10.328 14.427a.492.492 0 01-.348-.84l3.587-3.586L9.98 6.414a.495.495 0 01.7-.7l3.934 3.935a.492.492 0 010 .7l-3.934 3.934a.49.49 0 01-.352.144z"></path></svg>