<svg xmlns="http://www.w3.org/2000/svg" viewBox="0 0 36 24"><g fill="none" fill-rule="evenodd"><rect stroke="#D3D3D3" fill="#3498D8" x=".5" y=".5" width="35" height="23" rx="4"/><path d="M8.048 12.3h1.719l-.86-2-.859 2zM32 8.5h-4.404l-1.074 1.1-.966-1.1H16.21l-.86 1.8-.858-1.8h-3.76v.8l-.43-.8H7.082l-3.114 7h3.759l.43-1.1H9.23l.43 1.1h4.188v-.8l.322.8h2.149l.322-.9v.9h8.592l1.074-1.1.967 1.1h4.404L28.885 12 32 8.5zm-12.996 6h-1.182v-3.9l-1.826 3.9h-1.074l-1.826-3.9v3.9h-2.47l-.43-1.1H7.62l-.43 1.1H5.793l2.255-5h1.826l2.04 4.7V9.5h2.042l1.61 3.4 1.504-3.4h2.041v5h-.107zm10.633 0h-1.611l-1.396-1.7-1.611 1.7h-4.834v-5h4.94l1.505 1.6 1.61-1.6h1.504L27.381 12l2.256 2.5zm-8.27-4v.9h2.685v1h-2.685v1h3.007l1.396-1.5-1.289-1.4h-3.114z" fill="#FFF"/></g></svg>