<svg xmlns="http://www.w3.org/2000/svg" width="30" height="20"><g fill="#fff" stroke="#d3d3d3" stroke-miterlimit="10"><rect width="30" height="20" rx="2" stroke="none"/><rect x=".5" y=".5" width="29" height="19" rx="1.5" fill="none"/></g><path d="M10.434 15.441c1.711 0 2.522-1.147 2.522-3.035 0-1.129-.511-2.487-2.116-2.487-.353 0-.723.035-.723-.194 0-.106.106-.141.547-.176C11.846 9.481 12.6 8.12 12.6 6.956a2.081 2.081 0 00-2.236-2.275c-.706 0-.935.071-.935.212v10.354c0 .159.265.194 1.005.194zm-.406.493c-.353 0-1.429-.018-1.57 0-.3 0-.459-.071-.459-.23V4.434c0-.194.371-.212.635-.212.477 0 1.252-.018 2.258.053a3 3 0 012.965 2.716 2.9 2.9 0 01-2.029 2.663c1.535.371 2.681 1.358 2.681 2.84 0 2.982-2.8 3.44-4.481 3.44M20.99 4.505c-2.96 0-4.241 2.328-4.241 5.359 0 3.807 2.22 5.576 3.735 5.576.541 0 .685-.09.685-.306V9.9c0-.181-.144-.235-.144-.325 0-.036.036-.072.181-.072h1.118c.271 0 .433.091.452.343v5.647c0 .307 0 .433-.163.451-.306.036-.848.055-1.082.055-4.584 0-6.568-3.14-6.568-6.117a5.872 5.872 0 015.864-5.883c1.48 0 1.931.343 1.931.577 0 .144-.216.271-.414.271-.453.001-.723-.342-1.354-.342z"/></svg>