<svg xmlns="http://www.w3.org/2000/svg" width="30" height="20"><g transform="translate(-73 -1336)"><g transform="translate(73 1336)" stroke-miterlimit="10" stroke="#d3d3d3" fill="#fff"><rect width="30" height="20" rx="2" stroke="none"/><rect x=".5" y=".5" width="29" height="19" rx="1.5" fill="none"/></g><circle cx="5" cy="5" r="5" transform="translate(83 1341)" fill="#00857c"/><path d="M88.292 1343.694a.856.856 0 01.816.808h.6a1.428 1.428 0 00-1.413-1.4v-.606h-.348v.606a1.718 1.718 0 00-.782.244 1.424 1.424 0 00-.64 1.19 1.329 1.329 0 00.597 1.114 3.893 3.893 0 00.824.379v1.994a.89.89 0 01-.866-.873.107.107 0 01.008-.05h-.58a.832.832 0 00-.008.127 1.261 1.261 0 00.622 1.1 1.461 1.461 0 00.824.269v.782h.345v-.782a1.81 1.81 0 00.85-.269 1.443 1.443 0 00.673-1.22 1.414 1.414 0 00-.648-1.194 4.205 4.205 0 00-.875-.4zm-.345 1.683c-.572-.193-.816-.454-.816-.875 0-.446.286-.74.816-.808zm.345.8c.614.227.892.522.892.967a.879.879 0 01-.892.883z" stroke="#fff" stroke-width=".3" fill="#fff"/></g><path d="M5.253 3.09h19.191a4.88 4.88 0 00.856 1.868 4.112 4.112 0 001.627 1.067v8.568a3.5 3.5 0 00-1.758.733A3.072 3.072 0 0024.443 17H5.253a2.916 2.916 0 00-.585-1.674 3.124 3.124 0 00-1.658-.733V6.025a3.706 3.706 0 001.392-1.067 6.114 6.114 0 00.851-1.868z" stroke-linecap="round" stroke-linejoin="round" fill="none" stroke="#d3d3d3"/></svg>