<svg xmlns="http://www.w3.org/2000/svg" width="30" height="20"><defs><style>.b{fill:#757575}</style></defs><g stroke="#d3d3d3" stroke-miterlimit="10" fill="#fff"><rect width="30" height="20" rx="2" stroke="none"/><rect x=".5" y=".5" width="29" height="19" rx="1.5" fill="none"/></g><g transform="translate(-5 -28.886)"><path class="b" d="M8.481 32.394h5.685a.42.42 0 100-.841H8.481a.42.42 0 000 .841zM8.481 34.269h7.615a.42.42 0 100-.841H8.481a.42.42 0 000 .841zM17.669 34.316a.471.471 0 10-.475-.467.471.471 0 00.475.467zM32.156 44.339a.393.393 0 00-.356-.42H8.236a.426.426 0 000 .841H31.8a.393.393 0 00.356-.421zM31.736 45.778h-8.208a.42.42 0 100 .841h8.208a.42.42 0 100-.841z"/><circle class="b" cx=".467" cy=".467" r=".467" transform="translate(21.434 45.732)"/><g transform="translate(25.505 31.891)"><circle cx="5" cy="5" r="5" transform="translate(-3.505 -.505)" fill="#00857c"/><path d="M1.743 2.146a.88.88 0 01.839.83h.614a1.467 1.467 0 00-1.453-1.435V.918h-.355v.623a1.766 1.766 0 00-.8.251A1.464 1.464 0 00-.073 3.01a1.366 1.366 0 00.614 1.15 4 4 0 00.847.389v2.049a.915.915 0 01-.891-.9.11.11 0 01.009-.052h-.6a.855.855 0 00-.009.13 1.3 1.3 0 00.64 1.133 1.5 1.5 0 00.847.277v.8h.354v-.8a1.861 1.861 0 00.873-.277 1.483 1.483 0 00.692-1.254 1.453 1.453 0 00-.661-1.227 4.322 4.322 0 00-.9-.415zm-.355 1.729c-.588-.2-.839-.467-.839-.9 0-.458.294-.761.839-.83zm.354.821c.631.233.917.536.917.994a.9.9 0 01-.917.908z" fill="#fff"/></g></g></svg>