<svg xmlns="http://www.w3.org/2000/svg" width="30" height="20">><g stroke="#d3d3d3" stroke-miterlimit="10" fill="#0079be"><rect width="30" height="20" rx="2" stroke="none"/><rect x=".5" y=".5" width="29" height="19" rx="1.5" fill="none"/></g><path fill="#fff" d="M22.177 9.9a6.118 6.118 0 00-6.258-6.05H13.1A5.91 5.91 0 007.064 9.9a6 6 0 006.036 5.945h2.816A6.226 6.226 0 0022.177 9.9z"/><path d="M13.121 4.354A5.491 5.491 0 1018.6 9.845a5.485 5.485 0 00-5.479-5.491z" fill="#0079be"/><path fill="#fff" d="M9.658 9.835a3.486 3.486 0 012.229-3.248v6.5a3.484 3.484 0 01-2.229-3.252zm4.714 3.249v-6.5a3.481 3.481 0 010 6.5z"/></svg>