<svg xmlns="http://www.w3.org/2000/svg" width="30" height="20"><g style="fill:#fff;stroke:#d3d3d3;stroke-miterlimit:10"><rect width="30" height="20" rx="2" style="stroke:none" stroke="none"/><rect x=".5" y=".5" width="29" height="19" rx="1.5" style="fill:none"/></g><path d="M207.442 7.457H208.966l.023.006.023.007.023.008.023.009.023.01.023.011.022.012.023.013.023.015.023.016.023.018.023.02.023.022.023.024.023.027.023.031.023.036.023.042q.011.021.023.053a.614.614 0 0 1 .023.076.66.66 0 0 1 0 .287.615.615 0 0 1-.023.076q-.01.027-.023.053t-.023.042l-.023.036-.023.031-.023.027-.023.024-.023.022-.023.02-.023.018-.023.016-.023.015-.023.013-.022.012-.023.011-.023.01-.023.009-.023.008-.023.007-.023.006h-1.524V7.457Zm1.815-1.393a.624.624 0 0 1 0 .262.564.564 0 0 1-.023.076.545.545 0 0 1-.023.052q-.01.021-.023.041l-.023.034-.023.029-.023.025-.023.022-.023.02-.023.018-.023.016-.023.015-.023.013-.023.012-.023.011-.023.009-.023.008-.023.007-.023.006-.023.005h-.023.003-1.36V5.627H208.828l.023.005.023.006.023.007.023.008.023.009.023.011.023.012.023.013.023.015.023.016.023.018.023.02.023.022.023.025.023.029.023.034.023.041a.545.545 0 0 1 .023.052.563.563 0 0 1 .023.077Zm2.795-5.89h.009v11.665c0 .07 0 .139-.009.207s-.013.119-.023.178q-.01.059-.023.117t-.023.094l-.023.08a1.474 1.474 0 0 1-.046.134l-.023.058-.023.054-.023.051-.023.048-.023.045-.023.043-.023.041-.023.039-.023.037-.023.036-.023.034-.023.033-.023.032-.023.031-.023.03-.023.029-.023.028-.023.027-.023.026-.023.025-.023.025-.023.024-.023.023-.023.023-.023.022-.023.022-.023.021-.023.021-.023.02-.023.019-.023.019-.023.018-.023.018-.023.017-.023.017-.023.017-.023.016-.023.016-.023.016-.023.015-.023.015-.023.014-.023.014-.023.014-.023.013-.022.013-.023.013-.023.012-.023.012-.023.012-.023.011-.023.011-.023.011-.023.011-.023.01-.023.01-.023.01-.023.009-.023.009-.023.009-.023.009-.023.008-.023.008-.023.008-.023.007-.023.007-.023.007-.023.007-.023.007-.023.006-.023.006-.023.006-.023.006-.023.005H206.3V9.416h4.09l.023-.005.023-.006.023-.006.023-.006.023-.006.023-.007.023-.007.023-.007.023-.008.023-.008.023-.009.023-.009.023-.009.023-.01.023-.01.023-.011.023-.011.023-.012.023-.012.023-.013.023-.013.023-.014.022-.014.023-.015.023-.016.023-.016.023-.017.023-.018.023-.019.023-.02.023-.021.023-.022.023-.023.023-.025.023-.026.023-.028.023-.03.023-.033.023-.036.023-.04.023-.044.023-.051.023-.06q.013-.038.023-.077a1.056 1.056 0 0 0-.001-.166 1.126 1.126 0 0 0 .01-.15 1.057 1.057 0 0 0-.01-.146 1 1 0 0 0-.023-.113q-.01-.038-.023-.074t-.023-.058l-.023-.049-.023-.043-.023-.038-.023-.035-.023-.032-.023-.029-.023-.027-.023-.026-.023-.024-.023-.023-.023-.021-.023-.02-.023-.019-.023-.018-.023-.017-.023-.017-.023-.016-.023-.015-.023-.014-.022-.014-.023-.013-.023-.013-.023-.012-.023-.012-.023-.011-.023-.011-.023-.01-.023-.01-.023-.009-.023-.009-.023-.009-.023-.008-.023-.008-.023-.008-.023-.007-.023-.007-.004-.005-.023-.006-.023-.006-.023-.006-.023-.005-.023-.005h-.32V7.1H210.201l.023-.005.023-.006.023-.006.023-.006.023-.007.023-.007.023-.007.023-.008.023-.008.02-.04.023-.009.023-.01.023-.01.023-.011.023-.011.023-.012.023-.012.023-.013.023-.013.023-.014.023-.015.023-.016.023-.016.023-.017.023-.018.023-.019.023-.02.023-.022.023-.023.023-.024.022-.026.023-.028.023-.03.023-.033.023-.036.023-.04.023-.045.023-.051q.011-.026.023-.062.013-.039.023-.08a1.024 1.024 0 0 0 .023-.133 1.068 1.068 0 0 0 .006-.108c0-.039 0-.076-.006-.113a1.034 1.034 0 0 0-.023-.136q-.01-.041-.023-.08t-.023-.061l-.023-.051-.023-.044-.023-.039-.023-.035-.023-.032-.023-.029-.023-.027-.022-.025-.023-.024-.023-.022-.023-.021-.023-.02-.023-.019-.023-.018-.023-.017-.027-.01-.023-.015-.023-.014-.023-.014-.023-.013-.023-.012-.023-.012-.023-.011-.023-.011-.023-.01-.023-.01-.023-.009-.023-.009-.023-.009-.023-.008-.023-.008-.023-.007-.023-.007-.023-.007-.023-.006-.015-.008-.023-.006-.023-.005-.023-.005H206.3V2.507a2.34 2.34 0 0 1 .049-.476q.01-.049.023-.1t.023-.082l.023-.073.023-.065.023-.06.023-.055.023-.051.023-.048.023-.045.023-.043.023-.041.023-.039.023-.038.023-.036.023-.035.023-.033.023-.032.023-.031.023-.03.023-.029.023-.028.023-.027.023-.027.023-.025.023-.025.023-.024.023-.024.023-.023L207 .84l.023-.022.024-.018.023-.021.023-.02.023-.02.023-.019.021-.02.023-.018.023-.018.023-.017.023-.017.023-.016L207.3.6l.023-.016.023-.015.023-.015.023-.015.023-.014.023-.014.023-.013.023-.013.016-.016.023-.013.023-.012.023-.012.023-.011.023-.011.018-.01.023-.011.023-.01.023-.01.023-.01.023-.009.023-.009.023-.009.023-.009.023-.008.023-.008.018-.007.019-.009.023-.007.023-.007.023-.007.023-.007.023-.006.023-.006.023-.006.023-.005.023-.005h3.952Z" transform="translate(-187.743 2.825)" style="fill-rule:evenodd;fill:#479951"/><path d="m.485 8.292-.048-.023V2.507a2.341 2.341 0 0 1 .048-.474q.01-.049.023-.1t.022-.08l.022-.072.023-.066.025-.06.02-.055.022-.051.023-.049.023-.046.022-.043.023-.041.023-.039.022-.038.022-.036.022-.035.022-.033.023-.032.023-.031.023-.026.022-.029.022-.028.023-.032L1 .985l.025-.026.023-.025L1.07.91l.023-.024.022-.023.023-.022.022-.022L1.183.8l.022-.023.022-.02.023-.019.023-.019L1.3.7l.018-.018.022-.018.023-.017.022-.017.023-.016L1.43.6l.023-.018.022-.015L1.5.552l.02-.015.023-.014.022-.014L1.588.5 1.61.483 1.633.47l.022-.012.023-.012L1.7.434l.023-.012.022-.011L1.768.4 1.79.39l.022-.01.023-.01.023-.01.022-.01.02-.009.025-.009.023-.008.022-.009.023-.008L2.015.3l.023-.008.022-.007.023-.008.022-.006.023-.007.022-.006.023-.006L2.2.246 2.218.24 2.24.235 2.263.23H2.375L2.4.2H2.577L2.6.18h3.6v11.659a2.355 2.355 0 0 1-.019.3 2.15 2.15 0 0 1-.045.24c-.008.03-.014.058-.023.087l-.022.075c-.007.025-.015.045-.022.067l-.023.061-.022.056-.024.058-.023.049-.022.046-.023.044-.022.042-.025.036-.023.038-.022.036-.023.035-.022.034-.022.032-.023.031-.022.03-.023.029-.022.028-.022.028-.023.027-.022.026-.022.025-.023.024-.022.024-.023.023-.026.03-.023.022-.022.021-.022.021-.023.02-.022.02-.022.019-.023.019-.022.018-.023.018-.022.017-.022.017-.023.016-.022.016-.022.016-.023.016-.022.015-.023.015-.022.014-.023.014-.022.013-.022.013-.023.013-.022.013-.022.012-.023.012-.022.012-.023.011-.022.011-.022.011-.023.011-.022.01-.023.01-.022.01-.023.004-.022.009-.022.009-.023.009-.022.008-.022.008-.023.008-.022.007-.023.007-.022.007-.022.007-.023.006-.022.006-.023.006-.022.005-.025.008-.023.005H.437V9.256l.048.013.023.006.022.005.022.005.023.005.025.01h.02l.022.005.022.005H4.074l.022-.005.023-.005.022-.005.023-.005.036.11h.02l.022-.006.022-.006.023-.006.022-.006.022-.007.023-.007.022-.007.024-.009.022-.007.022-.007.023-.008.022-.008.023-.008.023-.008.022-.008.023-.009.02-.009.023-.009.022-.009.022-.009.023-.01.022-.01.022-.01.026-.017.022-.011.023-.012.022-.012.023-.012.022-.012.028-.007.023-.013.022-.013.023-.014.022-.014.022-.015.023-.015.022-.016.022-.016L5.1 9l.022-.017.023-.018.022-.019.023-.019.022-.02.022-.021.023-.022.022-.023.021-.025.023-.025.022-.026.023-.027.022-.028.022-.03.023-.032.022-.034.022-.036.021-.039.025-.039.023-.045.022-.055.023-.054q.012-.03.022-.061t.022-.07l.023-.083q.011-.042.022-.106.014-.079.022-.161.011-.114.011-.232V4.93H3.708v2.707q0 .064-.005.125a1.294 1.294 0 0 1-.022.152q-.01.046-.022.09t-.023.069q-.01.029-.022.057t-.024.05l-.022.044-.022.039-.023.037-.023.03-.022.03-.023.028-.022.026-.023.024-.022.023-.022.021-.023.02-.022.019-.021.018-.022.017-.022.016-.023.015-.025.013-.023.014-.022.013-.023.013-.023.012-.017.011-.023.01-.022.01-.022.009-.028.008-.022.008-.023.008-.022.007-.022.007-.023.006-.022.006-.023.006-.022.005H1.638l-.028-.059-.023-.005-.022-.005-.022-.005-.023-.007-.02-.005-.023-.006-.022-.006-.025-.006-.023-.006-.022-.006-.022-.007-.023-.007-.022-.007L1.3 8.61l-.027-.01H1.25l-.023-.007-.022-.007-.023-.007-.022-.012-.022-.008-.023-.008-.022-.008-.023-.007-.022-.008-.023-.008L1 8.511.98 8.5l-.022-.005-.023-.009-.022-.009-.023-.009-.022-.008-.023-.009-.022-.01L.8 8.432l-.022-.009-.023-.01L.733 8.4.71 8.394l-.022-.01-.023-.01-.022-.01-.023-.009-.02-.01-.022-.01-.023-.01-.025-.011L.508 8.3l-.023-.008Z" transform="translate(5.23 2.825)" style="fill:#265797;fill-rule:evenodd"/><path d="m104.909 5.522-.048.04V2.507a2.341 2.341 0 0 1 .048-.474l.022-.1q.012-.051.023-.083l.022-.073q.011-.036.024-.062l.023-.06.022-.055.023-.051.022-.048.023-.045.022-.043.023-.041.022-.039.023-.038.022-.036.023-.035.022-.033.023-.032.022-.031.023-.03.022-.029.022-.028.023-.027.022-.027.023-.026.022-.025.022-.024.022-.024.023-.023.022-.022.023-.022.022-.021.023-.021.022-.02.023-.02.026-.02.019-.019.023-.018.023-.018.022-.017.023-.017.023-.016.021-.014.023-.016.023-.017.023-.015.022-.015.023-.014.022-.014.021-.009.022-.013.023-.013.023-.013.021-.015.023-.012.022-.011.023-.011.023-.012.023-.011.022-.01.023-.01.022-.01.019-.009.023-.009.022-.009.023-.009.022-.009.023-.008.026-.006.023-.008.022-.007.023-.007.022-.007.023-.007.023-.006.025-.006.023-.006.023-.005.022-.005.023-.005H110.628v11.608a2.355 2.355 0 0 1-.019.3 2.15 2.15 0 0 1-.046.24c-.009.03-.014.058-.022.087l-.023.075-.022.067-.022.061-.022.056-.023.053-.023.049-.022.046-.022.044-.023.042-.022.04-.022.038-.023.036-.022.035-.023.034-.022.032-.023.031-.023.03-.022.029-.023.028-.022.028-.023.027-.023.026-.023.025-.023.024-.022.024-.022.023-.022.023-.023.022-.022.021-.023.021-.023.02-.022.02-.023.019-.022.019-.023.018-.023.018-.023.017-.022.017-.022.016-.023.016-.022.016-.023.016-.023.015-.022.015-.023.014-.022.014-.023.013-.022.013-.023.013-.022.013-.023.012-.022.012-.022.012-.022.011-.023.011-.023.011-.022.011-.023.01-.022.01-.023.01-.022.009-.023.009-.022.009-.023.009-.023.008-.022.008-.022.008-.033.012-.023.007-.022.007-.023.007-.022.006-.023.006-.022.006-.023.005-.022.005-.023.005h-3.938V8.786l.048.04.022.018.023.018.022.017.023.016.023.016.022.016.023.015.022.015.023.015.022.014.023.014.022.014.023.013.022.013.023.013.022.012.023.012.022.012.023.012.022.011.022.011.023.011.022.011.023.01.022.01.022.01.022.01.023.01.022.009.023.009.023.009.023.009.022.009.023.009.022.008.022.008.023.008.023.008.022.008.023.008.023.007.022.007.023.007.022.007.023.007.022.007.023.006.022.006.023.006.022.006.023.006.023.006.022.006.023.005.022.005.023.005.022.005.023.005H109.793l.023-.005.022-.005.023-.005.023-.005.022-.005.023-.005.022-.005.022-.006V8.269l-.022.011-.022.011-.029.009-.022.011-.023.011-.023.011-.022.011-.023.01-.022.01-.023.01-.023.01-.023.01-.022.01-.022.01-.023.01-.022.01-.023.009-.023.009-.022.009-.023.009-.022.009-.023.009-.022.009-.023.009-.022.008-.023.008-.022.008-.022.008-.022.008-.023.008-.023.008-.022.008-.023.007-.022.007-.023.007-.022.007-.023.007-.022.007-.023.007-.023.007-.022.006-.022.006-.022.009-.023.006-.022.006-.023.006-.022.006-.023.006-.022.005-.023.005-.022.005-.02.008H107.408l-.022-.005-.023-.005-.022-.006-.023-.006-.023-.006-.022-.006-.022-.007-.022-.007-.023-.007-.022-.008-.023-.008-.022-.008-.023-.009-.022-.009-.023-.01-.023-.01-.022-.01L107 8.6l-.022-.011-.023-.012-.023-.012-.022-.013-.022-.013-.023-.014-.022-.014-.023-.014-.022-.015-.023-.016-.022-.016-.023-.017-.022-.018-.022-.019-.023-.02-.022-.021-.023-.021-.023-.022-.022-.024-.023-.025-.023-.026-.022-.028-.023-.029-.022-.031-.023-.033-.022-.035-.023-.038-.021-.043-.023-.044-.022-.048-.023-.053c-.008-.018-.015-.04-.022-.06l-.022-.069-.023-.082a1.496 1.496 0 0 1-.022-.106q-.015-.08-.023-.165t-.009-.2q0-.1.009-.2t.023-.165q.01-.054.022-.106t.023-.082l.022-.069.022-.06a.65.65 0 0 1 .023-.053l.022-.048.023-.044.022-.041.023-.038.022-.035.023-.033.022-.031.023-.029.022-.028.023-.026.023-.025.022-.024.023-.022.023-.021.022-.021.023-.02.022-.019.022-.018.023-.017.022-.016.023-.016.022-.015.023-.015.022-.014.023-.014.022-.013.022-.013.023-.012.023-.012.021-.011.023-.011.022-.01.023-.01.023-.01.022-.009.023-.009.022-.008.023-.008.022-.008.023-.007.022-.007.022-.007.022-.006.023-.006.023-.006.022-.006.023-.005.022-.005H108.82l.022.005.023.005.022.005.023.005.022.006.023.006.022.006.023.053.023.006.022.006.022.006.023.007.023.007.022.007.023.007.022.007.023.007.022.007.023.007.022.008.023.008.023.008.022.008.022.008.022.008.023.008.022.008.023.009.022.009.023.009.022.009.023.009.022.009.023.009.023.01.022.01.023.01.022.01.022.01.023.01.023.01.023.01.022.01.023.011.022.011.023.011.023.011.022.011.023.011.022.011.022.011V5.09l-.022-.006-.022-.005-.023-.005-.022-.005-.023-.005-.023-.005-.022-.005-.023-.005H109.023L109 4.9H106.208l-.023.005-.022.005-.023.005-.022.005-.023.005-.022.006-.023.006-.023.006-.022.006-.016.051h-.023l-.023.006-.022.007-.023.007-.022.007-.023.007-.022.007-.023.007-.023.008-.022.008-.023.008-.023.008-.022.008-.022.008-.023.009-.022.009-.023.009-.023.009-.023.009-.022.009-.023.01-.022.01-.022.01-.022.01-.023.01-.022.011-.023.011-.022.011-.022.011-.023.012-.022.012-.023.012-.022.012-.023.013-.022.013-.023.013-.022.014-.023.014-.022.014-.023.015-.022.015-.023.015-.022.016-.021.019-.023.016-.022.017-.023.018-.022.018Z" transform="translate(-92.655 2.825)" style="fill:#ca4638;fill-rule:evenodd"/></svg>