<svg xmlns="http://www.w3.org/2000/svg" width="30" height="20"><defs><style>.d{stroke:#d3d3d3}.b,.c,.d{fill:none}.b,.c{stroke:#00857c}.c,.d{stroke-linecap:round}</style></defs><g stroke="#d3d3d3" fill="#fff" stroke-miterlimit="10"><rect width="30" height="20" rx="2" stroke="none"/><rect x=".5" y=".5" width="29" height="19" rx="1.5" fill="none"/></g><path class="b" d="M18.5 1v18M29 9H1M18.331 8.536c-.738.534-6.931-2.062-4.939-4.709 2.921-2.178 5.259 4.481 4.939 4.709z"/><path class="c" d="M22.156 12.414s-.766-.889-1.76-1.92-2.206-2.206-2.206-2.206"/><g><path class="b" d="M18.875 8.521c-.534-.738 1.99-6.651 4.709-4.939 2.219 2.841-4.481 5.259-4.709 4.939z"/><path class="c" d="M15.14 12.612a22.25 22.25 0 011.532-1.781c.996-1.058 2.451-2.451 2.451-2.451"/></g><path class="d" d="M3.5 13.5h5M3.5 16.5h10"/></svg>