<svg xmlns="http://www.w3.org/2000/svg" viewBox="0 0 36 24"><g fill="none" fill-rule="evenodd"><rect stroke="#D3D3D3" fill="#FFF" x=".5" y=".5" width="35" height="23" rx="4"/><path d="M21.019 6c-1.3 0-2.503.413-3.484 1.112 1.512 1.078 1.512 8.573 0 9.65a5.982 5.982 0 003.484 1.113c3.303 0 5.981-2.658 5.981-5.938C27 8.658 24.322 6 21.019 6" fill="#F59D1E"/><path d="M17.465 7.112A5.982 5.982 0 0013.98 6C10.678 6 8 8.658 8 11.937c0 3.28 2.678 5.938 5.981 5.938 1.3 0 2.503-.413 3.484-1.112-1.512-1.078-1.512-8.573 0-9.65" fill="#E91D25"/><path d="M19.875 11.937c0-1.957-.937-3.689-2.375-4.75a5.887 5.887 0 00-2.375 4.75c0 1.958.937 3.69 2.375 4.75a5.887 5.887 0 002.375-4.75" fill="#F06122"/></g></svg>