<svg width="18" height="18" viewBox="0 0 18 18" fill="none" xmlns="http://www.w3.org/2000/svg">
<path fill-rule="evenodd" clip-rule="evenodd" d="M2.36005 2.35849C3.88215 0.837394 5.91027 0 8.07277 0C10.2339 0 12.2621 0.837379 13.7842 2.35849C16.6724 5.24486 16.9382 9.82992 14.4231 13.0487L14.2794 13.2326L17.7696 16.6957C18.0792 17.0054 18.0718 17.4921 17.7775 17.7721C17.6111 17.9192 17.4223 18 17.2267 18C17.0177 18 16.836 17.9315 16.684 17.7799L13.2166 14.2679L13.0316 14.4152C11.6223 15.5376 9.85888 16.1336 8.07277 16.1336C5.91027 16.1336 3.88215 15.2962 2.36005 13.7751C0.837945 12.254 0 10.2272 0 8.06615C0 5.90505 0.838033 3.87823 2.36005 2.35849ZM8.07277 1.52202C6.34037 1.52202 4.67812 2.20967 3.4452 3.44314C2.21278 4.67481 1.52433 6.31206 1.52433 8.06615C1.52433 9.79749 2.21258 11.4573 3.4453 12.6906C4.67819 13.9227 6.34039 14.6103 8.07277 14.6103C9.80522 14.6103 11.4662 13.9225 12.699 12.6905C13.9313 11.4577 14.6212 9.82181 14.6212 8.06615C14.6212 6.31187 13.9313 4.67462 12.6989 3.44304C11.4664 2.21002 9.82804 1.52202 8.07277 1.52202Z" fill="#000000"/>
</svg>
