<svg width="20" height="20" viewBox="0 0 20 20" fill="none" xmlns="http://www.w3.org/2000/svg">
<path d="M14.2215 13.5763C14.63 13.3795 14.9915 13.3517 15.2498 13.4595C16.3335 13.9114 17.2825 14.641 17.9966 15.5792C18.5077 16.2509 18.8822 17.0081 19.106 17.8088C19.1782 18.0671 19.1105 18.2979 18.937 18.4869C18.753 18.6873 18.4495 18.8332 18.0989 18.8332H2.09965C1.74919 18.8332 1.44571 18.6874 1.26175 18.4871C1.08817 18.2982 1.02042 18.0675 1.09238 17.8092C1.31522 17.0097 1.68827 16.2534 2.19759 15.5822C2.9089 14.6448 3.8546 13.9149 4.93504 13.4613C5.19351 13.3528 5.55574 13.38 5.96494 13.5769C6.85194 14.0036 8.39038 14.6017 10.0937 14.6017C11.7976 14.6017 13.3354 14.0032 14.2215 13.5763ZM15.1496 6.18184C15.1496 8.94754 12.893 11.1972 10.0998 11.1972C7.30673 11.1972 5.05009 8.94754 5.05009 6.18184C5.05009 3.41615 7.30673 1.1665 10.0998 1.1665C12.893 1.1665 15.1496 3.41615 15.1496 6.18184Z" stroke="#9D9D9E" stroke-width="1.5"/>
</svg>
