<svg width="30" height="17" viewBox="0 0 30 17" fill="none" xmlns="http://www.w3.org/2000/svg">
<path d="M27.3701 16.586H2.75222C1.77862 16.585 0.990606 15.822 0.99268 14.884C0.99268 14.306 1.29752 13.768 1.80142 13.456L14.6584 5.51199C15.7263 4.85199 16.0363 3.48199 15.352 2.45297C14.6677 1.42398 13.2483 1.12399 12.1803 1.78399C11.5219 2.19097 11.1237 2.89398 11.1237 3.64797C11.1248 4.04397 10.7919 4.36498 10.3814 4.36599C9.97076 4.36697 9.63793 4.04598 9.63691 3.64999V3.64798C9.63691 1.633 11.3311 0 13.4204 0C15.5086 0 17.2018 1.63397 17.2018 3.64899C17.2018 4.892 16.5454 6.04898 15.4598 6.72L2.60292 14.664C2.47539 14.743 2.43805 14.907 2.51997 15.03C2.57078 15.106 2.65787 15.152 2.75118 15.152H27.3691C27.5215 15.152 27.6439 15.033 27.6439 14.887C27.6439 14.797 27.5962 14.713 27.5174 14.664L17.714 8.607C17.3687 8.39298 17.2671 7.94898 17.489 7.616C17.7108 7.28199 18.1712 7.185 18.5165 7.39899L28.3199 13.456C29.139 13.964 29.3764 15.015 28.8497 15.805C28.5262 16.291 27.9694 16.585 27.3701 16.586L27.3701 16.586Z" fill="#9D9D9E"/>
</svg>
