<svg width="29" height="20" viewBox="0 0 29 20" fill="none" xmlns="http://www.w3.org/2000/svg">
<path fill-rule="evenodd" clip-rule="evenodd" d="M27.2118 15.9543C28.8862 12.9174 28.3614 9.13807 25.8896 6.66648C24.4145 5.19114 22.4531 4.37847 20.3665 4.37847C19.7979 4.37847 19.239 4.44087 18.6967 4.55868C18.3167 3.96989 17.8731 3.41551 17.3652 2.90815C15.4902 1.03263 12.9962 0 10.3436 0C7.6915 0 5.19779 1.03235 3.32227 2.90815C0.0528243 6.17731 -0.515267 11.292 1.91856 15.1853L1.04823 18.6439C0.988063 18.8829 1.05776 19.1358 1.2321 19.3102C1.40617 19.4848 1.65914 19.5539 1.89841 19.4943L5.48715 18.5913C6.96557 19.4207 8.63904 19.8581 10.3458 19.8581C12.2267 19.8581 14.0266 19.3362 15.584 18.3646C16.9468 19.4241 18.6108 20 20.3648 20C21.8144 20 23.2173 19.6049 24.4422 18.8535L27.0411 19.5075C27.2798 19.5679 27.5328 19.498 27.7069 19.3236C27.8812 19.1493 27.9512 18.8963 27.891 18.6573L27.2118 15.9543ZM14.5192 17.3675C13.2587 18.0775 11.8318 18.4575 10.3458 18.4575C8.79409 18.4575 7.27508 18.0372 5.95337 17.2416C5.84339 17.1761 5.71857 17.1419 5.59237 17.1419C5.535 17.1419 5.47764 17.1489 5.42138 17.1629L2.69289 17.8497L3.35165 15.2317C3.40007 15.0395 3.36452 14.8354 3.25399 14.6706C0.995352 11.3013 1.44086 6.77115 4.31321 3.89909C5.92399 2.28801 8.06592 1.40091 10.3439 1.40091C12.6221 1.40091 14.764 2.28802 16.3751 3.89909C16.7188 4.24303 17.0277 4.61242 17.3042 5.00112C17.5796 5.38898 17.8222 5.79616 18.0273 6.22013C18.58 7.36246 18.8727 8.62344 18.8727 9.92977C18.8727 12.208 17.9856 14.3494 16.3751 15.9604C16.1568 16.1782 15.9279 16.3819 15.6917 16.573C15.3206 16.8725 14.9289 17.1366 14.5192 17.3675ZM25.7835 16.0214L26.2469 17.8631L24.4909 17.4215C24.2981 17.3725 24.0941 17.4081 23.9293 17.5192C22.8751 18.2263 21.6424 18.5997 20.3651 18.5997C19.0639 18.5997 17.8225 18.2135 16.7697 17.4971C16.9737 17.3236 17.1735 17.1425 17.3652 16.9511C19.2407 15.0758 20.2736 12.5821 20.2736 9.92976C20.2736 8.5003 19.9708 7.11731 19.4008 5.85212C19.7179 5.80427 20.04 5.77964 20.3666 5.77964C22.0784 5.77964 23.6883 6.4468 24.8989 7.65741C26.9852 9.74394 27.3817 12.9641 25.8624 15.4894C25.7664 15.6487 25.7379 15.8404 25.7835 16.0214Z" fill="#141417"/>
</svg>
