<svg xmlns="http://www.w3.org/2000/svg" width="20" height="20" viewBox="0 0 20 20"><path d="M-6021.722,14.693l-6.444-6.446a7.339,7.339,0,0,1-4.459,1.5A7.384,7.384,0,0,1-6040,2.377,7.383,7.383,0,0,1-6032.625-5a7.384,7.384,0,0,1,7.376,7.376,7.334,7.334,0,0,1-1.5,4.456l6.446,6.446a1,1,0,0,1,0,1.414,1,1,0,0,1-.708.292A1,1,0,0,1-6021.722,14.693ZM-6038,2.377a5.381,5.381,0,0,0,5.374,5.375,5.381,5.381,0,0,0,5.375-5.375A5.38,5.38,0,0,0-6032.625-3,5.381,5.381,0,0,0-6038,2.377Z" transform="translate(6040 4.999)"></path><rect width="20" height="20" transform="translate(0)" fill="none"></rect></svg>