<svg xmlns="http://www.w3.org/2000/svg" width="28" height="24" viewBox="0 0 28 24">
  <defs>
    <style>.barcode-ico{opacity:0.8;}.barcode-item-ico{fill:none;}</style>
  </defs>
  <g class="barcode-ico">
    <path d="M0 0H3.08329H5.99996V1.5H1.5V6.33333H0V0ZM22 0H28V6.33333H26.5V1.5H22V0ZM26.5 22.5V17.6667H28V24H22V22.5H26.5ZM1.5 17.6667V22.5H5.99996V24H0V17.6667H1.5Z" fill="black"/>

    <rect width="3" height="16" transform="translate(5 4)"/>
    <rect width="1" height="16" transform="translate(9 4)"/>
    <rect width="2" height="16" transform="translate(12 4)"/>
    <rect width="3" height="16" transform="translate(15 4)"/>
    <rect width="1" height="16" transform="translate(19 4)"/>
    <rect width="1" height="16" transform="translate(21 4)"/>

    <rect class="barcode-item-ico" width="24" height="28"/>
  </g>
</svg>