<svg width="16" height="20" viewBox="0 0 16 20" fill="none" xmlns="http://www.w3.org/2000/svg">
    <path fill-rule="evenodd" clip-rule="evenodd"
          d="M15.6106 15.6815L14.0506 11.0005V6.00049C14.0506 2.68649 11.3646 0.000488281 8.05059 0.000488281C4.73659 0.000488281 2.05059 2.68649 2.05059 6.00049V11.0005L0.490595 15.6815C0.273595 16.3305 0.756595 17.0005 1.44059 17.0005H5.05059C5.05059 18.6575 6.39359 20.0005 8.05059 20.0005C9.70759 20.0005 11.0506 18.6575 11.0506 17.0005H14.6606C15.3446 17.0005 15.8276 16.3305 15.6106 15.6815ZM8.05059 19.0005C6.94759 19.0005 6.05059 18.1035 6.05059 17.0005H10.0506C10.0506 18.1035 9.15359 19.0005 8.05059 19.0005ZM1.43859 15.9975L2.99959 11.3165C3.03359 11.2145 3.05059 11.1075 3.05059 11.0005V6.00049C3.05059 3.24349 5.29359 1.00049 8.05059 1.00049C10.8076 1.00049 13.0506 3.24349 13.0506 6.00049V11.0005C13.0506 11.1075 13.0676 11.2145 13.1016 11.3165L14.6606 16.0005L1.43859 15.9975Z"
          fill="black"/>
</svg>
