<svg xmlns="http://www.w3.org/2000/svg" width="20" height="20" viewBox="0 0 20 20" data-testid="btn-clear" aria-label="btn-clear"><g opacity="0.8"><path d="M10 20a10 10 0 1110-10 10.011 10.011 0 01-10 10zM10 .984A9.016 9.016 0 1019.016 10 9.026 9.026 0 0010 .984z"></path><path d="M13.279 13.771a.49.49 0 01-.348-.144L6.374 7.07a.495.495 0 01.7-.7l6.556 6.56a.492.492 0 01-.348.84z"></path><path d="M6.722 13.771a.492.492 0 01-.348-.84l6.557-6.557a.495.495 0 11.7.7L7.07 13.63a.49.49 0 01-.348.141z"></path></g></svg>