<svg width="20" height="20" viewBox="0 0 20 20" fill="none" xmlns="http://www.w3.org/2000/svg">
<g clip-path="url(#clip0_1641_3283)">
<mask id="mask0_1641_3283" style="mask-type:alpha" maskUnits="userSpaceOnUse" x="0" y="0" width="20" height="20">
<path fill-rule="evenodd" clip-rule="evenodd" d="M10 0C4.5 0 0 4.5 0 10C0 15.5 4.5 20 10 20C15.5 20 20 15.5 20 10C20 4.5 15.5 0 10 0ZM15 13.6L13.6 15L10 11.4L6.4 15L5 13.6L8.6 10L5 6.4L6.4 5L10 8.6L13.6 5L15 6.4L11.4 10L15 13.6Z" fill="white"/>
</mask>
<g mask="url(#mask0_1641_3283)">
<rect x="-2" y="-2" width="24" height="24" fill="#5C5C5C"/>
</g>
</g>
<defs>
<clipPath id="clip0_1641_3283">
<rect width="20" height="20" fill="white"/>
</clipPath>
</defs>
</svg>
