<svg xmlns="http://www.w3.org/2000/svg" width="20" height="20" viewBox="0 0 20 20" fill="#999" class="material-icons MuiIcon-root jss11" aria-hidden="true"><defs><style>.a{fill:none;}</style></defs><path d="M-6024.649,11.058l-7.145-7.145-7.145,7.145a.5.5,0,0,1-.708,0,.5.5,0,0,1,0-.706l7.146-7.145-7.146-7.145a.5.5,0,0,1,0-.706.5.5,0,0,1,.708,0l7.145,7.145,7.145-7.145a.5.5,0,0,1,.708,0,.5.5,0,0,1,0,.706l-7.146,7.145,7.146,7.145a.5.5,0,0,1,0,.706.5.5,0,0,1-.354.147A.5.5,0,0,1-6024.649,11.058Z" transform="translate(6041.793 6.793)"></path><rect class="a" width="20" height="20"></rect></svg>