<svg xmlns="http://www.w3.org/2000/svg" width="20" height="20" viewBox="0 0 20 20"><path d="M14.067 20H6.001a.872.872 0 01-.855-.759L3.312 3.829a.492.492 0 11.976-.116l1.818 15.3h7.848l1.817-15.3a.492.492 0 11.976.116l-1.83 15.412a.872.872 0 01-.85.759z"/><path d="M17.574 4.263H2.492a.492.492 0 110-.984h15.082a.492.492 0 010 .984z"/><path d="M12.656 4.262a.492.492 0 01-.492-.492V1.147A.166.166 0 0012 .983H8.066a.166.166 0 00-.164.164V3.77a.492.492 0 01-.984 0V1.147A1.149 1.149 0 018.066-.001H12a1.149 1.149 0 011.148 1.148V3.77a.492.492 0 01-.492.492z"/><path fill="none" d="M0 0h20v20H0z"/></svg>
