<svg xmlns="http://www.w3.org/2000/svg" width="20.001" height="20.002" viewBox="0 0 20.001 20.002"><g transform="translate(0 0.634)"><g transform="translate(1.907 0)"><path d="M598.5,373.893a.491.491,0,0,1-.348-.144l-2.689-2.689a.492.492,0,0,1,0-.7l13.788-13.788a.492.492,0,1,1,.7.7l-13.44,13.44,1.994,1.994,13.44-13.439a.492.492,0,0,1,.7.7l-13.788,13.787A.49.49,0,0,1,598.5,373.893Z" transform="translate(-595.315 -356.432)"></path></g><g transform="translate(0 13.788)"><path d="M589.993,404.062a.492.492,0,0,1-.454-.68l1.907-4.6a.492.492,0,1,1,.909.377l-1.451,3.5,3.5-1.451a.492.492,0,0,1,.377.909l-4.6,1.907A.492.492,0,0,1,589.993,404.062Z" transform="translate(-589.501 -398.482)"></path></g></g><g transform="translate(15.771)"><path d="M640.781,358.728a.492.492,0,0,1-.348-.84,1.41,1.41,0,1,0-1.993-1.994.492.492,0,0,1-.7-.7,2.393,2.393,0,1,1,3.385,3.385A.49.49,0,0,1,640.781,358.728Z" transform="translate(-637.6 -354.498)"></path></g><g transform="translate(14.427 1.902)"><path d="M636.681,363.973a.49.49,0,0,1-.348-.144l-2.69-2.69a.492.492,0,0,1,.7-.7l2.69,2.69a.492.492,0,0,1-.348.84Z" transform="translate(-633.499 -360.299)"></path></g></svg>