<svg xmlns="http://www.w3.org/2000/svg" width="20" height="20" viewBox="0 0 20 20"><g fill="currentColor" transform="translate(-585 -442)"><g transform="translate(325.5 -249.5)"><g transform="translate(259.5 694.5)"><path d="M277.741,707.943H261.259a1.75,1.75,0,0,1-1.759-1.737v-9.968a1.751,1.751,0,0,1,1.759-1.738h16.481a1.751,1.751,0,0,1,1.759,1.738v9.968A1.75,1.75,0,0,1,277.741,707.943Zm-16.481-12.459a.766.766,0,0,0-.776.754v9.968a.766.766,0,0,0,.776.754h16.481a.766.766,0,0,0,.776-.754v-9.968a.766.766,0,0,0-.776-.754Z" transform="translate(-259.5 -694.5)"/></g><g transform="translate(259.806 695.09)"><path d="M270.128,704.562a.491.491,0,0,1-.305-.106l-9.2-7.279a.492.492,0,0,1,.61-.772l8.9,7.038,8.9-7.038a.492.492,0,0,1,.61.772l-9.2,7.279A.491.491,0,0,1,270.128,704.562Z" transform="translate(-260.434 -696.3)"/></g></g><rect fill="none" width="20" height="20" transform="translate(585 442)"/></g></svg>
