<svg xmlns="http://www.w3.org/2000/svg" viewBox="0 0 338.531 338.531"><path d="M333.413 275.866l-139.2-239.6c-6.4-10.8-15.6-17.2-25.2-17.2-10 0-19.2 6.4-25.2 17.2l-138.4 239.6c-6.4 10.8-7.2 22-2 30.4 4.8 8.4 14.8 13.2 27.6 13.2h276.8c12.4 0 22.4-4.8 27.6-13.2 4.8-8.4 4-19.6-2-30.4zm-13.2 22c-2 3.2-6.4 4.8-12.8 4.8h-276.8c-6.4 0-11.2-2-12.8-4.8-2-3.2-1.2-8 2-13.6l138.4-239.6c3.2-5.6 7.2-8.8 10.8-8.8 3.6 0 7.6 3.2 10.8 8.8l138.4 239.6c3.2 5.6 4 10.4 2 13.6z"/><path d="M169.013 97.866c-4.8 0-8.4 3.6-8.4 8.4v111.2c0 4.8 3.6 8.4 8.4 8.4s8.4-3.6 8.4-8.4v-111.2c0-4.8-3.6-8.4-8.4-8.4z"/><circle cx="169.013" cy="259.466" r="14.8"/></svg>
