<svg width="20" height="20" viewBox="0 0 20 20" fill="none" xmlns="http://www.w3.org/2000/svg">
<path d="M0.500501 10.4997L18.2935 10.4997L9.6465 19.1457C9.4515 19.3417 9.4515 19.6577 9.6465 19.8537C9.8425 20.0487 10.1585 20.0487 10.3545 19.8537L19.8535 10.3538C19.8995 10.3078 19.9365 10.2518 19.9625 10.1908C20.0125 10.0688 20.0125 9.93075 19.9625 9.80875C19.9365 9.74775 19.8995 9.69175 19.8535 9.64575L10.3545 0.145749C10.2565 0.0487492 10.1285 -0.000250726 10.0005 -0.000250737C9.8725 -0.000250748 9.7445 0.0487491 9.6465 0.145749C9.4515 0.341749 9.4515 0.657749 9.6465 0.853749L18.2935 9.49975L0.500501 9.49975C0.224501 9.49975 0.000500624 9.72375 0.0005006 9.99975C0.000500575 10.2757 0.224501 10.4997 0.500501 10.4997Z" fill="black"/>
</svg>
