<svg xmlns="http://www.w3.org/2000/svg" width="20" height="20" viewBox="0 0 20 20" class="jss359 jss360"><defs><style>.a{fill:none;}</style></defs><path d="M.5,3.5h19A.5.5,0,0,1,20,4h0a.5.5,0,0,1-.5.5H.5A.5.5,0,0,1,0,4H0A.5.5,0,0,1,.5,3.5Z"></path><path d="M.5,9.5h19a.5.5,0,0,1,.5.5h0a.5.5,0,0,1-.5.5H.5A.5.5,0,0,1,0,10H0A.5.5,0,0,1,.5,9.5Z"></path><path d="M.5,15.5h13a.5.5,0,0,1,.5.5h0a.5.5,0,0,1-.5.5H.5A.5.5,0,0,1,0,16H0A.5.5,0,0,1,.5,15.5Z"></path><rect class="a" width="20" height="20"></rect></svg>