<svg xmlns="http://www.w3.org/2000/svg" xmlns:xlink="http://www.w3.org/1999/xlink" viewBox="0 0 36 24" class="material-icons MuiIcon-root jss605" aria-hidden="true"><defs><path id="a" d="M0 .375h8.658v13.617H0z"></path><path id="c" d="M.342.102h9.654V13H.342z"></path></defs><g fill="none" fill-rule="evenodd"><rect stroke="#D3D3D3" fill="#FFF" x="0.5" y="0.5" width="35" height="23" rx="4"></rect><g transform="translate(9 3)"><mask id="b" fill="#fff"><use xlink:href="#a"></use></mask><path d="M7.225 11.993C7.177 8.47 7.232 4 8.632.683c.079-.148-.02-.308-.295-.308-.197 0-.296.061-.354.21C6.759 3.88 6.62 7.25 6.606 10.613c-.442-1.05-.912-2.307-1.518-4.04-.571-1.627-.886-2.897-1.359-5.472-.04-.222-.236-.345-.551-.345-.335 0-.532.148-.532.394 0 .495.08 1.25.204 2.004-.068 2.812-.425 6.688-1.503 9.186-.08.16-.178.259-.257.259-.157 0-.295-.222-.53-.888-.04-.086-.119-.148-.296-.148-.178 0-.296.099-.257.26.572 1.737.69 2.168 1.202 2.168.354 0 .57-.172.728-.567.928-2.301 1.224-5.409 1.394-8.092.708 2.698 1.778 5.468 2.8 7.476.138.271.394.382.729.382.532 0 .787-.246.61-.702a27.261 27.261 0 01-.245-.496" fill="#000" mask="url(#b)"></path></g><g transform="translate(16 8)"><mask id="d" fill="#fff"><use xlink:href="#c"></use></mask><path d="M9.662 9.787c-.191.156-.337.517-.51.517-.168 0-.336-.4-.441-1.054-.483-2.727-.525-5.986-.273-8.082.02-.182-.042-.267-.232-.267-.146 0-.252.049-.314.206C6.958 3.42 5.97 6.063 5.396 7.78c-.092-.691-.332-1.923-.655-3.267-.315-1.296-.693-3.053-.777-4.06-.021-.241-.21-.35-.546-.35-.378 0-.567.145-.525.387.077.45.15.904.217 1.346-.348 3.172-1.13 8.14-2.728 10.828-.1.136-.012.303.28.332.209.021.32-.029.398-.167 1.443-2.702 2.012-5.549 2.384-8.417l.017-.095c.043.333.587 5.32.944 7.175.021.109.105.194.294.194.231 0 .315-.11.336-.194.599-2.437 1.197-4.5 1.81-6.274.098 2.349.31 4.612.522 5.523.21.908.483 1.272.903 1.272.493 0 1.596-1.23 1.7-1.734.103-.502-.118-.647-.308-.49" fill="#000" mask="url(#d)"></path></g></g></svg>