<svg width="10" height="10" viewBox="0 0 10 10" fill="none" xmlns="http://www.w3.org/2000/svg">
<path d="M5.89075 4.99668L9.44537 1.68237C9.61032 1.50219 9.61356 1.26356 9.45119 1.11231C9.37551 1.0412 9.26554 1.00023 9.14974 1.00023H9.1491C9.03395 1.00023 8.92398 1.0412 8.84765 1.11231L5.28656 4.43325L1.72548 1.11231C1.5657 0.962865 1.28236 0.962262 1.12129 1.11231C0.95957 1.26296 0.95957 1.5263 1.12129 1.67634L4.68173 4.99668L1.12129 8.31701C0.95957 8.46706 0.95957 8.731 1.12129 8.88105C1.22156 8.94854 1.3173 8.98469 1.42338 8.98469C1.56829 8.98469 1.64138 8.95938 1.72548 8.88105L5.28656 5.56011L8.84765 8.88105C8.94792 8.94854 9.04301 8.98469 9.1491 8.98469C9.29465 8.98469 9.36774 8.95938 9.45119 8.88165C9.61291 8.731 9.61291 8.46706 9.45119 8.31701L5.89075 4.99668Z" fill="#888888" stroke="#888888" stroke-width="0.5"/>
</svg>
