<svg width="14" height="21" viewBox="0 0 14 21" fill="none" xmlns="http://www.w3.org/2000/svg">
<path d="M5.1464 19.9972C5.02394 19.9818 4.91178 19.9206 4.83243 19.8261C4.75309 19.7315 4.71217 19.6105 4.71818 19.4872C4.7171 19.4431 4.72229 19.399 4.73331 19.3562L5.67521 12.0072C5.67521 12.0162 5.62621 11.9922 5.52921 11.9922H1.67423C1.51255 12.0037 1.35085 11.9682 1.2089 11.89C1.06695 11.8117 0.95101 11.6941 0.874427 11.5512C0.810828 11.4039 0.791111 11.2412 0.818275 11.083C0.845438 10.9248 0.918143 10.7779 1.02726 10.6602L9.17325 0.190229C9.21283 0.139452 9.26178 0.0969732 9.31779 0.0652185C9.37379 0.0334637 9.43553 0.0130561 9.49943 0.00516226C9.56332 -0.00273158 9.6283 0.00204274 9.69034 0.0192127C9.75239 0.0363827 9.8105 0.0656116 9.86124 0.105229C9.92221 0.152197 9.97129 0.212919 10.0043 0.282437C10.0373 0.351955 10.0533 0.428296 10.0512 0.505229C10.0526 0.542078 10.0501 0.57897 10.0434 0.615229L8.65031 7.87623C8.64803 7.89036 8.64895 7.90482 8.65275 7.91862C8.65654 7.93242 8.6631 7.94525 8.67228 7.95623C8.6804 7.96597 8.69043 7.97367 8.70206 7.97871C8.7137 7.98374 8.72651 7.98598 8.73917 7.98523H12.3271C12.4865 7.96418 12.6487 7.98925 12.7943 8.05748C12.94 8.12571 13.0634 8.23424 13.1493 8.37023C13.2111 8.50155 13.2331 8.64803 13.2128 8.79172C13.1926 8.93541 13.1307 9.07008 13.0351 9.17923L5.67325 19.6792C5.63926 19.7743 5.57657 19.8565 5.49406 19.9147C5.41154 19.9729 5.31328 20.0042 5.21232 20.0042C5.19017 20.0036 5.16819 20.0012 5.1464 19.9972ZM1.99503 11.0092H5.53019C5.69196 11.0036 5.85303 11.0318 6.00333 11.0918C6.15363 11.1519 6.28992 11.2426 6.40324 11.3582C6.49481 11.459 6.56429 11.5777 6.60734 11.7068C6.65039 11.836 6.66606 11.9727 6.65324 12.1082L5.95304 17.5602L11.9814 8.96623H8.73624C8.58085 8.96655 8.42715 8.93299 8.28605 8.86788C8.14495 8.80276 8.01994 8.70767 7.91935 8.58923C7.81752 8.46699 7.74333 8.32412 7.70206 8.17046C7.6608 8.01681 7.6532 7.85604 7.68009 7.69923L8.69913 2.39923L1.99503 11.0092Z" fill="black"/>
</svg>
