<svg xmlns="http://www.w3.org/2000/svg" width="20" height="20" viewBox="0 0 20 20" class="material-icons MuiIcon-root MuiIcon-fontSizeSmall" aria-hidden="true"><g transform="translate(5.903)"><g transform="translate(1.312)"><g transform="translate(0 0.324)"><path d="M392,475.653a.492.492,0,0,1-.348-.839l9.182-9.182a.492.492,0,0,1,.7.7l-9.182,9.182A.49.49,0,0,1,392,475.653Z" transform="translate(-391.513 -465.487)"></path><g transform="translate(2.295 2.295)"><path d="M399,482.653a.492.492,0,0,1-.348-.839l9.182-9.182a.492.492,0,0,1,.7.7l-9.182,9.182A.49.49,0,0,1,399,482.653Z" transform="translate(-398.513 -472.487)"></path></g></g><g transform="translate(9.182)"><path d="M422.3,468.1a.491.491,0,0,1-.371-.815,1.27,1.27,0,0,0-.09-1.5,1.108,1.108,0,0,0-.781-.3,1.1,1.1,0,0,0-.715.187.492.492,0,0,1-.679-.712,1.992,1.992,0,0,1,1.422-.458,2.061,2.061,0,0,1,1.47.612,2.242,2.242,0,0,1,.113,2.821A.491.491,0,0,1,422.3,468.1Z" transform="translate(-419.513 -464.499)"></path></g></g><g transform="translate(0 9.506)"><path d="M388,498.078a.492.492,0,0,1-.462-.66l1.312-3.607a.492.492,0,1,1,.924.336l-.951,2.617,2.617-.951a.492.492,0,0,1,.336.924l-3.607,1.312A.491.491,0,0,1,388,498.078Z" transform="translate(-387.512 -493.487)"></path></g></g><g transform="translate(0 2.62)"><g transform="translate(0 0)"><path d="M386.4,489.867H370a.492.492,0,0,1-.492-.492v-16.4a.492.492,0,0,1,.492-.492H380.5a.492.492,0,1,1,0,.984h-10v15.412h15.413v-10a.492.492,0,0,1,.984,0v10.489a.492.492,0,0,1-.492.492Z" transform="translate(-369.512 -472.487)"></path></g></g></svg>