<svg width="21" height="21" viewBox="0 0 21 21" fill="none" xmlns="http://www.w3.org/2000/svg">
<path d="M15.5731 8.85901C15.4757 8.85905 15.3806 8.83018 15.2996 8.77612C15.2187 8.72206 15.1555 8.64522 15.1183 8.5553C15.081 8.46537 15.0713 8.3664 15.0903 8.27094C15.1093 8.17547 15.1562 8.08779 15.225 8.01898L18.8121 4.43201L15.225 0.844971C15.1322 0.752145 15.0801 0.626271 15.0801 0.494995C15.0801 0.36372 15.1322 0.237784 15.225 0.144958C15.3179 0.0521327 15.4438 0 15.5751 0C15.7063 0 15.8322 0.0521327 15.925 0.144958L19.8591 4.07898C19.9053 4.12481 19.9419 4.17931 19.9669 4.23938C19.9919 4.29945 20.0049 4.36388 20.0049 4.42896C20.0049 4.49403 19.9919 4.55846 19.9669 4.61853C19.9419 4.6786 19.9053 4.73316 19.8591 4.77899L15.925 8.71295C15.8791 8.75956 15.8243 8.79652 15.7639 8.82159C15.7034 8.84667 15.6385 8.85942 15.5731 8.85901Z" fill="black"/>
<path d="M17.868 19.0195H0.819031C0.601553 19.0195 0.392977 18.9331 0.239197 18.7794C0.0854169 18.6256 -0.000976562 18.417 -0.000976562 18.1995V4.75751C-0.000976562 4.54003 0.0854169 4.33145 0.239197 4.17767C0.392977 4.02389 0.601553 3.9375 0.819031 3.9375H5.73703C5.86752 3.9375 5.99266 3.98934 6.08493 4.0816C6.1772 4.17387 6.22903 4.29902 6.22903 4.4295C6.22903 4.55999 6.1772 4.68514 6.08493 4.7774C5.99266 4.86967 5.86752 4.92151 5.73703 4.92151H0.983032V18.0375H17.699V10.3375C17.699 10.207 17.7509 10.0819 17.8431 9.98962C17.9354 9.89736 18.0605 9.84552 18.191 9.84552C18.3215 9.84552 18.4466 9.89736 18.5389 9.98962C18.6312 10.0819 18.683 10.207 18.683 10.3375V18.2065C18.6812 18.4219 18.5947 18.6279 18.4422 18.78C18.2897 18.9322 18.0834 19.0182 17.868 19.0195Z" fill="black"/>
<path d="M5.40904 12.5295C5.27855 12.5295 5.1534 12.4777 5.06114 12.3854C4.96887 12.2932 4.91703 12.168 4.91703 12.0375C4.91038 9.89884 5.75243 7.84485 7.25843 6.32629C8.76443 4.80773 10.8113 3.94861 12.95 3.9375H19.18C19.3105 3.9375 19.4357 3.98934 19.5279 4.0816C19.6202 4.17387 19.672 4.29902 19.672 4.4295C19.672 4.55999 19.6202 4.68514 19.5279 4.7774C19.4357 4.86967 19.3105 4.92151 19.18 4.92151H12.95C11.0724 4.93235 9.27578 5.68756 7.95429 7.02142C6.6328 8.35529 5.89439 10.1589 5.90104 12.0365C5.90117 12.1012 5.88854 12.1653 5.86387 12.2251C5.8392 12.2849 5.80297 12.3393 5.75727 12.3851C5.71157 12.4309 5.6573 12.4672 5.59754 12.4919C5.53779 12.5167 5.47373 12.5295 5.40904 12.5295Z" fill="black"/>
</svg>
