<svg xmlns="http://www.w3.org/2000/svg" viewBox="0 0 20 20" width="20" height="20" class="material-icons MuiIcon-root MuiIcon-fontSizeSmall" aria-hidden="true"><path d="M9.008 11.463H.491A.491.491 0 010 10.972V.492A.491.491 0 01.491.001h8.517a.491.491 0 01.491.491v10.48a.491.491 0 01-.491.491zM.983 10.48h7.534V.98H.983zM9.008 20H.491A.491.491 0 010 19.509v-6.551a.491.491 0 01.491-.491h8.517a.491.491 0 01.491.491v6.551a.491.491 0 01-.491.491zm-8.025-.983h7.534v-5.568H.983zM19.508 20h-8.516a.491.491 0 01-.491-.491V9.029a.491.491 0 01.491-.491h8.516a.491.491 0 01.491.491v10.48a.491.491 0 01-.491.491zm-8.025-.983h7.533v-9.5h-7.533zM19.508 7.533h-8.516a.491.491 0 01-.491-.491V.491A.491.491 0 0110.992 0h8.516a.491.491 0 01.491.491v6.551a.491.491 0 01-.491.491zm-8.025-.983h7.533V.982h-7.533z"></path></svg>