<svg xmlns="http://www.w3.org/2000/svg" width="20" height="20" viewBox="0 0 20 20"><g transform="translate(-450 -589.999)"><path d="M-6032.5,3h-7a.5.5,0,0,1-.5-.5v-7a.5.5,0,0,1,.5-.5h7a.5.5,0,0,1,.5.5v7a.5.5,0,0,1-.5.5Zm-.5-1V-4h-6V2Z" transform="translate(6491 596)"></path><path d="M-6032.5,3h-7a.5.5,0,0,1-.5-.5v-7a.5.5,0,0,1,.5-.5h7a.5.5,0,0,1,.5.5v7a.5.5,0,0,1-.5.5Zm-.5-1V-4h-6V2Z" transform="translate(6501 596)"></path><path d="M-6032.5,3h-7a.5.5,0,0,1-.5-.5v-7a.5.5,0,0,1,.5-.5h7a.5.5,0,0,1,.5.5v7a.5.5,0,0,1-.5.5Zm-.5-1V-4h-6V2Z" transform="translate(6491 606.001)"></path><path d="M-6032.5,3h-7a.5.5,0,0,1-.5-.5v-7a.5.5,0,0,1,.5-.5h7a.5.5,0,0,1,.5.5v7a.5.5,0,0,1-.5.5Zm-.5-1V-4h-6V2Z" transform="translate(6501 606.001)"></path></g><rect width="20" height="20" fill="none"></rect></svg>