<svg width="21" height="12" viewBox="0 0 21 12" fill="none" xmlns="http://www.w3.org/2000/svg">
<path d="M18.8778 11.586H1.25927C0.562486 11.5853 -0.00148118 11.0523 2.92241e-06 10.3971C2.92241e-06 9.99333 0.218174 9.61749 0.578804 9.39956L9.78026 3.85035C10.5446 3.38931 10.7664 2.43231 10.2767 1.7135C9.78694 0.994709 8.77107 0.785153 8.00676 1.24619C7.53555 1.53048 7.25061 2.02156 7.25061 2.54826C7.25134 2.82488 7.01314 3.04912 6.7193 3.04982C6.42544 3.05051 6.18724 2.82628 6.1865 2.54967V2.54826C6.1865 1.14072 7.39902 0 8.89425 0C10.3887 0 11.6005 1.1414 11.6005 2.54897C11.6005 3.41726 11.1308 4.22546 10.3539 4.6942L1.15242 10.2434C1.06115 10.2986 1.03442 10.4131 1.09305 10.4991C1.12941 10.5522 1.19175 10.5843 1.25852 10.5843H18.8771C18.9862 10.5843 19.0737 10.5012 19.0737 10.3992C19.0737 10.3363 19.0396 10.2776 18.9832 10.2434L11.9671 6.01234C11.72 5.86284 11.6473 5.55269 11.8061 5.32009C11.9649 5.08677 12.2943 5.01902 12.5414 5.1685L19.5575 9.39957C20.1438 9.75443 20.3137 10.4886 19.9367 11.0404C19.7052 11.3799 19.3067 11.5853 18.8778 11.586L18.8778 11.586Z" fill="#9D9D9E"/>
</svg>
