<svg width="8" height="11" viewBox="0 0 8 11" fill="none" xmlns="http://www.w3.org/2000/svg">
<path fill-rule="evenodd" clip-rule="evenodd" d="M3.76012 10.3875C3.81949 10.4586 3.907 10.5 3.99996 10.5C4.09292 10.5 4.18043 10.4586 4.2398 10.3875C4.2398 10.3875 5.3836 9.0156 6.298 7.3695C6.92534 6.2402 7.4375 4.9828 7.4375 3.9375C7.4375 2.0402 5.8973 0.5 4 0.5C2.1027 0.5 0.5625 2.0402 0.5625 3.9375C0.5625 4.9828 1.07461 6.2402 1.702 7.3695C2.61645 9.0156 3.7602 10.3875 3.7602 10.3875H3.76012ZM3.99996 9.68672C3.62574 9.20703 2.88046 8.20392 2.24796 7.06562C1.6753 6.03472 1.18746 4.89222 1.18746 3.93752C1.18746 2.38522 2.44766 1.12502 3.99996 1.12502C5.55226 1.12502 6.81246 2.38522 6.81246 3.93752C6.81246 4.89221 6.32457 6.03482 5.75196 7.06562C5.11954 8.20392 4.37426 9.20702 3.99996 9.68672ZM3.99996 2.06252C2.96516 2.06252 2.12496 2.90275 2.12496 3.93752C2.12496 4.97229 2.96519 5.81252 3.99996 5.81252C5.03473 5.81252 5.87496 4.97229 5.87496 3.93752C5.87496 2.90275 5.03473 2.06252 3.99996 2.06252ZM3.99996 2.68752C4.6898 2.68752 5.24996 3.24768 5.24996 3.93752C5.24996 4.62736 4.6898 5.18752 3.99996 5.18752C3.31012 5.18752 2.74996 4.62736 2.74996 3.93752C2.74996 3.24768 3.31012 2.68752 3.99996 2.68752Z" fill="#6B6B6C"/>
</svg>
