<svg xmlns="http://www.w3.org/2000/svg" width="20.001" height="20" viewBox="0 0 20.001 20"><rect width="20" height="20" fill="none"></rect><g transform="translate(0.001)"><path d="M3.5,6H.5A.5.5,0,0,1,0,5.5v-3A.5.5,0,0,1,.5,2h3a.5.5,0,0,1,.5.5v3A.5.5,0,0,1,3.5,6ZM1,5H3V3H1Z"></path><path d="M3.5,12H.5a.5.5,0,0,1-.5-.5v-3A.5.5,0,0,1,.5,8h3a.5.5,0,0,1,.5.5v3A.5.5,0,0,1,3.5,12ZM1,11H3V9H1Z"></path><path d="M3.5,18H.5a.5.5,0,0,1-.5-.5v-3A.5.5,0,0,1,.5,14h3a.5.5,0,0,1,.5.5v3A.5.5,0,0,1,3.5,18ZM1,17H3V15H1Z"></path><path d="M19.5,4.5H6.5a.5.5,0,0,1,0-1h13a.5.5,0,0,1,0,1Z"></path><path d="M19.5,10.5H6.5a.5.5,0,0,1,0-1h13a.5.5,0,0,1,0,1Z"></path><path d="M19.5,16.5H6.5a.5.5,0,0,1,0-1h13a.5.5,0,0,1,0,1Z"></path></g></svg>