<svg width="16" height="17" viewBox="0 0 16 17" fill="none" xmlns="http://www.w3.org/2000/svg">
<path d="M7.5 15.5078V8.50781H0.5C0.367392 8.50781 0.240253 8.45513 0.146484 8.36137C0.0527162 8.2676 0 8.14042 0 8.00781C0 7.8752 0.0527162 7.74803 0.146484 7.65426C0.240253 7.56049 0.367392 7.50781 0.5 7.50781H7.5V0.507812C7.5 0.375204 7.55272 0.248027 7.64648 0.154259C7.74025 0.060491 7.86739 0.0078125 8 0.0078125C8.13261 0.0078125 8.25975 0.060491 8.35352 0.154259C8.44728 0.248027 8.5 0.375204 8.5 0.507812V7.50781H15.5C15.6326 7.50781 15.7597 7.56049 15.8535 7.65426C15.9473 7.74803 16 7.8752 16 8.00781C16 8.14042 15.9473 8.2676 15.8535 8.36137C15.7597 8.45513 15.6326 8.50781 15.5 8.50781H8.5V15.5078C8.5 15.6404 8.44728 15.7676 8.35352 15.8614C8.25975 15.9551 8.13261 16.0078 8 16.0078C7.86739 16.0078 7.74025 15.9551 7.64648 15.8614C7.55272 15.7676 7.5 15.6404 7.5 15.5078Z" fill="black"/>
</svg>
