<svg width="29" height="29" viewBox="0 0 29 29" fill="none" xmlns="http://www.w3.org/2000/svg">
<path d="M24.3614 4.3947C24.2101 4.13237 23.9301 3.97088 23.6273 3.97088H19.3888V3.12321C19.3888 2.44871 19.1208 1.80185 18.644 1.32496C18.1671 0.848038 17.5203 0.580078 16.8458 0.580078H11.7596C11.0851 0.580078 10.4382 0.848071 9.96133 1.32484C9.48457 1.80193 9.21656 2.44859 9.21656 3.12309V3.97076L5.37311 3.97092C5.07017 3.97092 4.79038 4.13243 4.63887 4.39473C4.48756 4.6569 4.48756 4.98008 4.63887 5.2424C4.79018 5.50457 5.07014 5.66622 5.37311 5.66622H5.82576V18.3815C5.82705 19.5052 6.27402 20.5824 7.06878 21.377C7.86322 22.1717 8.94053 22.6187 10.0643 22.62H18.5414C19.6651 22.6187 20.7425 22.1717 21.5369 21.377C22.3317 20.5824 22.7786 19.5052 22.7799 18.3815V5.66622H23.6276C23.9305 5.66622 24.2103 5.50455 24.3617 5.2424C24.513 4.98008 24.513 4.65689 24.3617 4.39473L24.3614 4.3947ZM10.912 3.12305C10.912 2.89826 11.0014 2.68254 11.1603 2.52362C11.3192 2.3647 11.5349 2.27537 11.7597 2.27537H16.8459C17.0707 2.27537 17.2864 2.3647 17.4453 2.52362C17.6042 2.68253 17.6936 2.89826 17.6936 3.12305V3.97072L10.9121 3.97088L10.912 3.12305ZM21.0844 18.3816C21.0844 19.0561 20.8164 19.703 20.3396 20.1799C19.8625 20.6566 19.2159 20.9246 18.5414 20.9246L10.0643 20.9248C9.38978 20.9248 8.74291 20.6568 8.26603 20.18C7.78927 19.7031 7.52127 19.0563 7.52127 18.3818L7.5211 5.66609H21.084L21.0844 18.3816Z" fill="black"/>
<path d="M11.336 17.42C11.5981 17.5713 11.9213 17.5713 12.1837 17.42C12.4458 17.2687 12.6075 16.9887 12.6075 16.6858V9.90432C12.6075 9.67954 12.5181 9.46381 12.3592 9.30489C12.2003 9.14597 11.9846 9.05664 11.7598 9.05664C11.535 9.05664 11.3193 9.14597 11.1604 9.30489C11.0014 9.4638 10.9121 9.67953 10.9121 9.90432V16.6858C10.9121 16.9887 11.0736 17.2685 11.3359 17.42H11.336Z" fill="black"/>
<path d="M16.4219 17.42C16.6841 17.5713 17.0073 17.5713 17.2696 17.42C17.5318 17.2687 17.6934 16.9887 17.6934 16.6858V9.90432C17.6934 9.67954 17.6041 9.46381 17.4452 9.30489C17.2862 9.14597 17.0705 9.05664 16.8457 9.05664C16.6209 9.05664 16.4052 9.14597 16.2463 9.30489C16.0874 9.4638 15.998 9.67953 15.998 9.90432V16.6858C15.998 16.9887 16.1596 17.2685 16.4219 17.42H16.4219Z" fill="black"/>
</svg>
