<svg xmlns="http://www.w3.org/2000/svg" width="19.586" height="20.001" viewBox="0 0 19.586 20.001"><path d="M-6036.819,1.716l-2.829-2.828a.5.5,0,0,1-.146-.352.5.5,0,0,1,.146-.355l2.829-2.828a.5.5,0,0,1,.353-.146.5.5,0,0,1,.354.146.5.5,0,0,1,0,.706l-1.977,1.977h17.588a.5.5,0,0,1,.5.5.5.5,0,0,1-.5.5h-17.584l1.973,1.974a.5.5,0,0,1,0,.706.5.5,0,0,1-.354.147A.5.5,0,0,1-6036.819,1.716Z" transform="translate(14.793 6040.001) rotate(90)"></path><path d="M-6023.888,1.717a.5.5,0,0,1,0-.706l1.975-1.975H-6039.5a.5.5,0,0,1-.5-.5.5.5,0,0,1,.5-.5h17.585l-1.974-1.975a.5.5,0,0,1,0-.706.5.5,0,0,1,.706,0l2.829,2.829a.5.5,0,0,1,.146.352.5.5,0,0,1-.146.355l-2.829,2.827a.494.494,0,0,1-.353.147A.491.491,0,0,1-6023.888,1.717Z" transform="translate(1.864 6040) rotate(90)"></path></svg>