<svg width="20" height="20" viewBox="0 0 20 20" fill="none" xmlns="http://www.w3.org/2000/svg">
<path fill-rule="evenodd" clip-rule="evenodd" d="M15.4828 19.9767C15.2148 19.9767 14.9448 19.9407 14.6788 19.8667C13.0588 19.4167 10.2588 18.0127 6.12379 13.8767C1.98979 9.74269 0.584792 6.94369 0.133793 5.32369C-0.156207 4.27869 0.138793 3.15469 0.904792 2.38869L3.12379 0.169687C3.31879 -0.0253125 3.63479 -0.0253125 3.83079 0.169687L7.83079 4.16969C7.99879 4.33869 8.02579 4.60269 7.89279 4.80069L6.12079 7.45969L12.5408 13.8797L15.1998 12.1077C15.3968 11.9737 15.6608 12.0007 15.8308 12.1697L19.8308 16.1697C20.0258 16.3657 20.0258 16.6817 19.8308 16.8767L17.6108 19.0967C17.0398 19.6677 16.2698 19.9767 15.4828 19.9767ZM3.47679 1.23069L1.61179 3.09569C1.10079 3.60669 0.903793 4.35769 1.09779 5.05569C1.51579 6.56069 2.84979 9.18969 6.83079 13.1697C10.8118 17.1517 13.4418 18.4857 14.9458 18.9037C15.6418 19.0967 16.3928 18.8997 16.9038 18.3897L18.7698 16.5237L15.4138 13.1667L12.7548 14.9397C12.5558 15.0717 12.2918 15.0447 12.1238 14.8767L5.12379 7.87669C4.95479 7.70869 4.92879 7.44469 5.06079 7.24569L6.83379 4.58669L3.47679 1.23069Z" fill="black"/>
</svg>
