<svg width="16" height="16" viewBox="0 0 16 16" fill="none" xmlns="http://www.w3.org/2000/svg">
<path d="M15.144 15.8489L7.99902 8.70389L0.854004 15.8489C0.807558 15.8955 0.752151 15.9324 0.691406 15.9576C0.630661 15.9828 0.565767 15.9958 0.5 15.9958C0.434233 15.9958 0.368851 15.9828 0.308105 15.9576C0.24736 15.9324 0.192442 15.8955 0.145996 15.8489C0.052566 15.7552 0 15.6282 0 15.4959C0 15.3636 0.052566 15.2366 0.145996 15.1429L7.29199 7.99789L0.145996 0.852894C0.052566 0.759171 0 0.632231 0 0.499894C0 0.367556 0.052566 0.240616 0.145996 0.146894C0.192442 0.10033 0.24736 0.0633873 0.308105 0.0381808C0.368851 0.0129744 0.434233 0 0.5 0C0.565767 0 0.630661 0.0129744 0.691406 0.0381808C0.752151 0.0633873 0.807558 0.10033 0.854004 0.146894L7.99902 7.29189L15.144 0.146894C15.1905 0.10033 15.2454 0.0633873 15.3062 0.0381808C15.3669 0.0129744 15.4323 0 15.498 0C15.5638 0 15.6287 0.0129744 15.6895 0.0381808C15.7502 0.0633873 15.8056 0.10033 15.8521 0.146894C15.9455 0.240616 15.998 0.367556 15.998 0.499894C15.998 0.632231 15.9455 0.759171 15.8521 0.852894L8.70605 7.99789L15.8521 15.1429C15.9455 15.2366 15.998 15.3636 15.998 15.4959C15.998 15.6282 15.9455 15.7552 15.8521 15.8489C15.8056 15.8955 15.7502 15.9324 15.6895 15.9577C15.6287 15.9829 15.5638 15.9959 15.498 15.9959C15.4323 15.9959 15.3669 15.9829 15.3062 15.9577C15.2454 15.9324 15.1905 15.8955 15.144 15.8489Z" fill="#999999"/>
</svg>
