<svg xmlns="http://www.w3.org/2000/svg" width="20" height="20" viewBox="0 0 20 20" color="inherit"><defs><style>.a{opacity:0.8;}</style></defs><g><g transform="translate(7.213)"><path d="M623.467,264.5H612.32a.821.821,0,0,1-.82-.82v-6.23a.492.492,0,0,1,.984,0v6.066H623.3V245.484h-10.82v6.066a.492.492,0,0,1-.984,0V245.32a.821.821,0,0,1,.82-.82h11.148a.821.821,0,0,1,.82.82V263.68A.821.821,0,0,1,623.467,264.5Z" transform="translate(-611.5 -244.5)"></path></g><g transform="translate(0 5.574)"><g transform="translate(0 3.934)"><path d="M603.762,274.484H589.992a.492.492,0,1,1,0-.984h13.771a.492.492,0,0,1,0,.984Z" transform="translate(-589.5 -273.5)"></path></g><g transform="translate(0)"><path d="M593.926,270.353a.49.49,0,0,1-.348-.144l-3.934-3.934a.492.492,0,0,1,0-.7l3.934-3.934a.492.492,0,0,1,.7.7l-3.587,3.587,3.587,3.587a.492.492,0,0,1-.348.84Z" transform="translate(-589.5 -261.5)"></path></g></g></g></svg>