<svg xmlns="http://www.w3.org/2000/svg" fill="currentColor" width="20" height="20" class="MuiSvgIcon-root jss10365 jss10366" focusable="false" viewBox="0 0 20 20" aria-hidden="true"><g opacity="0.8"><path d="M11.294 20a.493.493 0 01-.416-.229l-4.112-6.528L.237 9.29a.492.492 0 01.057-.871L19.31.042a.492.492 0 01.65.645L11.745 19.7a.492.492 0 01-.413.3zM1.555 8.937l5.82 3.524a.493.493 0 01.161.158l3.676 5.837 7.347-17.01z"></path><path d="M7.102 13.389a.492.492 0 01-.348-.84L19.154.144a.495.495 0 01.7.7l-12.405 12.4a.491.491 0 01-.347.145z"></path></g></svg>