<svg xmlns="http://www.w3.org/2000/svg" width="20" height="20" viewBox="0 0 20 20"><defs><style>.a{fill:none;}</style></defs><g transform="translate(-589.5 -136.5)"><g transform="translate(589.5 137.5)"><path d="M608.352,151.6H597.2a.492.492,0,1,1,0-.984h11.148a.166.166,0,0,0,.164-.164v-11.8a.166.166,0,0,0-.164-.164h-17.7a.166.166,0,0,0-.164.164v11.8a.166.166,0,0,0,.164.164h3.279a.492.492,0,1,1,0,.984h-3.279a1.149,1.149,0,0,1-1.148-1.148v-11.8a1.149,1.149,0,0,1,1.148-1.148h17.7a1.149,1.149,0,0,1,1.148,1.148v11.8A1.149,1.149,0,0,1,608.352,151.6Z" transform="translate(-589.5 -137.5)"/></g><g transform="translate(593.107 141.434)"><g transform="translate(0 0)"><path d="M612.8,150.484h-11.8a.492.492,0,1,1,0-.984h11.8a.492.492,0,1,1,0,.984Z" transform="translate(-600.5 -149.5)"/></g></g><g transform="translate(593.107 144.057)"><g transform="translate(0 0)"><path d="M612.8,158.484h-11.8a.492.492,0,1,1,0-.984h11.8a.492.492,0,1,1,0,.984Z" transform="translate(-600.5 -157.5)"/></g></g><g transform="translate(593.107 146.68)"><path d="M608.861,166.484h-7.869a.492.492,0,1,1,0-.984h7.869a.492.492,0,0,1,0,.984Z" transform="translate(-600.5 -165.5)"/></g><g transform="translate(593.434 150.615)"><path d="M601.992,182.418a.491.491,0,0,1-.492-.492v-3.934a.492.492,0,0,1,.984,0v2.576l2.409-2.891a.492.492,0,1,1,.755.63l-3.279,3.934A.491.491,0,0,1,601.992,182.418Z" transform="translate(-601.5 -177.5)"/></g></g><rect class="a" width="20" height="20"/></svg>