<svg width="16" height="17" viewBox="0 0 16 17" fill="none" xmlns="http://www.w3.org/2000/svg">
<path fill-rule="evenodd" clip-rule="evenodd" d="M5.36276 4.70812C5.4024 3.28556 6.56804 2.14453 8.00018 2.14453C9.43232 2.14453 10.598 3.28556 10.6376 4.70812H5.36276ZM4.36248 4.70812C4.40234 2.73322 6.01573 1.14453 8.00018 1.14453C9.98463 1.14453 11.598 2.73322 11.6379 4.70812H12.394H12.4925C13.321 4.70812 13.9924 5.37974 13.9924 6.20811V14.4081C13.9924 15.2365 13.321 15.9081 12.4925 15.9081H12.4923H12.4921H12.4919H12.4917H12.4915H12.4914H12.4912H12.491H12.4908H12.4906H12.4904H12.4902H12.49H12.4898H12.4896H12.4895H12.4893H12.4891H12.4889H12.4887H12.4885H12.4883H12.4881H12.4879H12.4877H12.4875H12.4874H12.4872H12.487H12.4868H12.4866H12.4864H12.4862H12.486H12.4858H12.4856H12.4855H12.4853H12.4851H12.4849H12.4847H12.4845H12.4843H12.4841H12.4839H12.4837H12.4835H12.4834H12.4832H12.483H12.4828H12.4826H12.4824H12.4822H12.482H12.4818H12.4816H12.4815H12.4813H12.4811H12.4809H12.4807H12.4805H12.4803H12.4801H12.4799H12.4797H12.4795H12.4794H12.4792H12.479H12.4788H12.4786H12.4784H12.4782H12.478H12.4778H12.4776H12.4774H12.4773H12.4771H12.4769H12.4767H12.4765H12.4763H12.4761H12.4759H12.4757H12.4755H12.4753H12.4752H12.475H12.4748H12.4746H12.4744H12.4742H12.474H12.4738H12.4736H12.4734H12.4732H12.4731H12.4729H12.4727H12.4725H12.4723H12.4721H12.4719H12.4717H12.4715H12.4713H12.4711H12.4709H12.4708H12.4706H12.4704H12.4702H12.47H12.4698H12.4696H12.4694H12.4692H12.469H12.4688H12.4687H12.4685H12.4683H12.4681H12.4679H12.4677H12.4675H12.4673H12.4671H12.4669H12.4667H12.4665H12.4664H12.4662H12.466H12.4658H12.4656H12.4654H12.4652H12.465H12.4648H12.4646H12.4644H12.4642H12.4641H12.4639H12.4637H12.4635H12.4633H12.4631H12.4629H12.4627H12.4625H12.4623H12.4621H12.462H12.4618H12.4616H12.4614H12.4612H12.461H12.4608H12.4606H12.4604H12.4602H12.46H12.4598H12.4597H12.4595H12.4593H12.4591H12.4589H12.4587H12.4585H12.4583H12.4581H12.4579H12.4577H12.4575H12.4573H12.4572H12.457H12.4568H12.4566H12.4564H12.4562H12.456H12.4558H12.4556H12.4554H12.4552H12.455H12.4549H12.4547H12.4545H12.4543H12.4541H12.4539H12.4537H12.4535H12.4533H12.4531H12.4529H12.4527H12.4525H12.4524H12.4522H12.452H12.4518H12.4516H12.4514H12.4512H12.451H12.4508H12.4506H12.4504H12.4502H12.4501H12.4499H12.4497H12.4495H12.4493H12.4491H12.4489H12.4487H12.4485H12.4483H12.4481H12.4479H12.4477H12.4476H12.4474H12.4472H12.447H12.4468H12.4466H12.4464H12.4462H12.446H12.4458H12.4456H12.4454H12.4452H12.4451H12.4449H12.4447H12.4445H12.4443H12.4441H12.4439H12.4437H12.4435H12.4433H12.4431H12.4429H12.4427H12.4426H12.4424H12.4422H12.442H12.4418H12.4416H12.4414H12.4412H12.441H12.4408H12.4406H12.4404H12.4402H12.44H12.4399H12.4397H12.4395H12.4393H12.4391H12.4389H12.4387H12.4385H12.4383H12.4381H12.4379H12.4377H12.4375H12.4373H12.4372H12.437H12.4368H12.4366H12.4364H12.4362H12.436H12.4358H12.4356H12.4354H12.4352H12.435H12.4348H12.4346H12.4345H12.4343H12.4341H12.4339H12.4337H12.4335H12.4333H12.4331H12.4329H12.4327H12.4325H12.4323H12.4321H12.4319H12.4318H12.4316H12.4314H12.4312H12.431H12.4308H12.4306H12.4304H12.4302H12.43H12.4298H12.4296H12.4294H12.4292H12.4291H12.4289H12.4287H12.4285H12.4283H12.4281H12.4279H12.4277H12.4275H12.4273H12.4271H12.4269H12.4267H12.4265H12.4263H12.4262H12.426H12.4258H12.4256H12.4254H12.4252H12.425H12.4248H12.4246H12.4244H12.4242H12.424H12.4238H12.4236H12.4234H12.4233H12.4231H12.4229H12.4227H12.4225H12.4223H12.4221H12.4219H12.4217H12.4215H12.4213H12.4211H12.4209H12.4207H12.4205H12.4204H12.4202H12.42H12.4198H12.4196H12.4194H12.4192H12.419H12.4188H12.4186H12.4184H12.4182H12.418H12.4178H12.4176H12.4175H12.4173H12.4171H12.4169H12.4167H12.4165H12.4163H12.4161H12.4159H12.4157H12.4155H12.4153H12.4151H12.4149H12.4147H12.4145H12.4144H12.4142H12.414H12.4138H12.4136H12.4134H12.4132H12.413H12.4128H12.4126H12.4124H12.4122H12.412H12.4118H12.4116H12.4114H12.4113H12.4111H12.4109H12.4107H12.4105H12.4103H12.4101H12.4099H12.4097H12.4095H12.4093H12.4091H12.4089H12.4087H12.4085H12.4083H12.4081H12.408H12.4078H12.4076H12.4074H12.4072H12.407H12.4068H12.4066H12.4064H12.4062H12.406H12.4058H12.4056H12.4054H12.4052H12.405H12.4049H12.4047H12.4045H12.4043H12.4041H12.4039H12.4037H12.4035H12.4033H12.4031H12.4029H12.4027H12.4025H12.4023H12.4021H12.4019H12.4017H12.4015H12.4014H12.4012H12.401H12.4008H12.4006H12.4004H12.4002H12.4H12.3998H12.3996H12.3994H12.3992H12.399H12.3988H12.3986H12.3984H12.3982H12.3981H12.3979H12.3977H12.3975H12.3973H12.3971H12.3969H12.3967H12.3965H12.3963H12.3961H12.3959H12.3957H12.3955H12.3953H12.3951H12.3949H12.3947H12.3945H12.3944H12.3942H12.394H3.60631H3.50774C2.67926 15.9081 2.00781 15.2365 2.00781 14.4081L2.00785 6.66526L2.00784 6.20802C2.00783 5.37947 2.67951 4.70812 3.50787 4.70812H4.36248ZM3.00784 6.208C3.00784 5.93194 3.23161 5.70812 3.50787 5.70812H12.394H12.4925C12.7686 5.70812 12.9924 5.93193 12.9924 6.20811V14.4081C12.9924 14.6843 12.7686 14.9081 12.4925 14.9081H12.4923H12.4921H12.4919H12.4917H12.4915H12.4914H12.4912H12.491H12.4908H12.4906H12.4904H12.4902H12.49H12.4898H12.4896H12.4895H12.4893H12.4891H12.4889H12.4887H12.4885H12.4883H12.4881H12.4879H12.4877H12.4875H12.4874H12.4872H12.487H12.4868H12.4866H12.4864H12.4862H12.486H12.4858H12.4856H12.4855H12.4853H12.4851H12.4849H12.4847H12.4845H12.4843H12.4841H12.4839H12.4837H12.4835H12.4834H12.4832H12.483H12.4828H12.4826H12.4824H12.4822H12.482H12.4818H12.4816H12.4815H12.4813H12.4811H12.4809H12.4807H12.4805H12.4803H12.4801H12.4799H12.4797H12.4795H12.4794H12.4792H12.479H12.4788H12.4786H12.4784H12.4782H12.478H12.4778H12.4776H12.4774H12.4773H12.4771H12.4769H12.4767H12.4765H12.4763H12.4761H12.4759H12.4757H12.4755H12.4753H12.4752H12.475H12.4748H12.4746H12.4744H12.4742H12.474H12.4738H12.4736H12.4734H12.4732H12.4731H12.4729H12.4727H12.4725H12.4723H12.4721H12.4719H12.4717H12.4715H12.4713H12.4711H12.4709H12.4708H12.4706H12.4704H12.4702H12.47H12.4698H12.4696H12.4694H12.4692H12.469H12.4688H12.4687H12.4685H12.4683H12.4681H12.4679H12.4677H12.4675H12.4673H12.4671H12.4669H12.4667H12.4665H12.4664H12.4662H12.466H12.4658H12.4656H12.4654H12.4652H12.465H12.4648H12.4646H12.4644H12.4642H12.4641H12.4639H12.4637H12.4635H12.4633H12.4631H12.4629H12.4627H12.4625H12.4623H12.4621H12.462H12.4618H12.4616H12.4614H12.4612H12.461H12.4608H12.4606H12.4604H12.4602H12.46H12.4598H12.4597H12.4595H12.4593H12.4591H12.4589H12.4587H12.4585H12.4583H12.4581H12.4579H12.4577H12.4575H12.4573H12.4572H12.457H12.4568H12.4566H12.4564H12.4562H12.456H12.4558H12.4556H12.4554H12.4552H12.455H12.4549H12.4547H12.4545H12.4543H12.4541H12.4539H12.4537H12.4535H12.4533H12.4531H12.4529H12.4527H12.4525H12.4524H12.4522H12.452H12.4518H12.4516H12.4514H12.4512H12.451H12.4508H12.4506H12.4504H12.4502H12.4501H12.4499H12.4497H12.4495H12.4493H12.4491H12.4489H12.4487H12.4485H12.4483H12.4481H12.4479H12.4477H12.4476H12.4474H12.4472H12.447H12.4468H12.4466H12.4464H12.4462H12.446H12.4458H12.4456H12.4454H12.4452H12.4451H12.4449H12.4447H12.4445H12.4443H12.4441H12.4439H12.4437H12.4435H12.4433H12.4431H12.4429H12.4427H12.4426H12.4424H12.4422H12.442H12.4418H12.4416H12.4414H12.4412H12.441H12.4408H12.4406H12.4404H12.4402H12.44H12.4399H12.4397H12.4395H12.4393H12.4391H12.4389H12.4387H12.4385H12.4383H12.4381H12.4379H12.4377H12.4375H12.4373H12.4372H12.437H12.4368H12.4366H12.4364H12.4362H12.436H12.4358H12.4356H12.4354H12.4352H12.435H12.4348H12.4346H12.4345H12.4343H12.4341H12.4339H12.4337H12.4335H12.4333H12.4331H12.4329H12.4327H12.4325H12.4323H12.4321H12.4319H12.4318H12.4316H12.4314H12.4312H12.431H12.4308H12.4306H12.4304H12.4302H12.43H12.4298H12.4296H12.4294H12.4292H12.4291H12.4289H12.4287H12.4285H12.4283H12.4281H12.4279H12.4277H12.4275H12.4273H12.4271H12.4269H12.4267H12.4265H12.4263H12.4262H12.426H12.4258H12.4256H12.4254H12.4252H12.425H12.4248H12.4246H12.4244H12.4242H12.424H12.4238H12.4236H12.4234H12.4233H12.4231H12.4229H12.4227H12.4225H12.4223H12.4221H12.4219H12.4217H12.4215H12.4213H12.4211H12.4209H12.4207H12.4205H12.4204H12.4202H12.42H12.4198H12.4196H12.4194H12.4192H12.419H12.4188H12.4186H12.4184H12.4182H12.418H12.4178H12.4176H12.4175H12.4173H12.4171H12.4169H12.4167H12.4165H12.4163H12.4161H12.4159H12.4157H12.4155H12.4153H12.4151H12.4149H12.4147H12.4145H12.4144H12.4142H12.414H12.4138H12.4136H12.4134H12.4132H12.413H12.4128H12.4126H12.4124H12.4122H12.412H12.4118H12.4116H12.4114H12.4113H12.4111H12.4109H12.4107H12.4105H12.4103H12.4101H12.4099H12.4097H12.4095H12.4093H12.4091H12.4089H12.4087H12.4085H12.4083H12.4081H12.408H12.4078H12.4076H12.4074H12.4072H12.407H12.4068H12.4066H12.4064H12.4062H12.406H12.4058H12.4056H12.4054H12.4052H12.405H12.4049H12.4047H12.4045H12.4043H12.4041H12.4039H12.4037H12.4035H12.4033H12.4031H12.4029H12.4027H12.4025H12.4023H12.4021H12.4019H12.4017H12.4015H12.4014H12.4012H12.401H12.4008H12.4006H12.4004H12.4002H12.4H12.3998H12.3996H12.3994H12.3992H12.399H12.3988H12.3986H12.3984H12.3982H12.3981H12.3979H12.3977H12.3975H12.3973H12.3971H12.3969H12.3967H12.3965H12.3963H12.3961H12.3959H12.3957H12.3955H12.3953H12.3951H12.3949H12.3947H12.3945H12.3944H12.3942H12.394H3.60631H3.50774C3.23164 14.9081 3.00781 14.6843 3.00781 14.4081L3.00785 6.66526L3.00784 6.208Z" fill="white" fill-opacity="0.9"/>
</svg>
